<svg width="107" height="39" viewBox="0 0 107 39" fill="none" xmlns="http://www.w3.org/2000/svg">
<path d="M20.6067 31.9789V36.0888H22.4579V31.9789H24.0646V30.4228H19V31.9789H20.6067Z" fill="#C10230"/>
<path d="M27.639 31.5899C26.923 31.5899 26.4777 31.9789 26.3292 32.4609H26.2943C26.3118 32.1903 26.3205 31.9281 26.3205 31.6744V30H24.5304V36.0888H26.3205V33.6786C26.3205 33.2812 26.5126 33.0359 26.7833 33.0359C27.0365 33.0359 27.1588 33.1966 27.1588 33.4503V36.0888H28.9488V33.0444C28.9488 32.0296 28.39 31.5899 27.639 31.5899Z" fill="#C10230"/>
<path d="M33.8663 33.7886C33.8663 32.3932 32.9843 31.5899 31.7007 31.5899C30.4259 31.5899 29.3955 32.4017 29.3955 33.8901C29.3955 35.4038 30.3473 36.1734 31.6833 36.1734C32.9494 36.1734 33.779 35.3953 33.8226 34.4397H32.1635C32.1286 34.7019 31.9976 34.8372 31.7007 34.8372C31.4388 34.8372 31.203 34.6681 31.1855 34.1691H33.8401C33.8575 34.0423 33.8663 33.8901 33.8663 33.7886ZM31.7007 32.8161C31.954 32.8161 32.1548 32.9767 32.1635 33.3996H31.203C31.2467 32.9852 31.4475 32.8161 31.7007 32.8161Z" fill="#C10230"/>
<path d="M40.3217 31.9704V30.4228H36.0779V36.0888H37.9291V34.3214H40.1296V32.8414H37.9291V31.9704H40.3217Z" fill="#C10230"/>
<path d="M40.7751 31.6744V36.0888H42.5651V34.2283C42.5651 33.4672 42.9319 33.2389 43.4471 33.2389C43.6566 33.2389 43.84 33.2643 44.0321 33.3235V31.6406C43.9186 31.6068 43.8138 31.5899 43.6566 31.5899C43.0454 31.5899 42.7048 31.9281 42.5651 32.6638H42.5302V31.6744H40.7751Z" fill="#C10230"/>
<path d="M44.4674 30V31.2262H46.2575V30H44.4674ZM44.4674 31.6744V36.0888H46.2575V31.6744H44.4674Z" fill="#C10230"/>
<path d="M51.2195 33.7886C51.2195 32.3932 50.3375 31.5899 49.0539 31.5899C47.779 31.5899 46.7487 32.4017 46.7487 33.8901C46.7487 35.4038 47.7005 36.1734 49.0365 36.1734C50.3026 36.1734 51.1321 35.3953 51.1758 34.4397H49.5167C49.4818 34.7019 49.3508 34.8372 49.0539 34.8372C48.792 34.8372 48.5562 34.6681 48.5387 34.1691H51.1933C51.2107 34.0423 51.2195 33.8901 51.2195 33.7886ZM49.0539 32.8161C49.3071 32.8161 49.508 32.9767 49.5167 33.3996H48.5562C48.5999 32.9852 48.8007 32.8161 49.0539 32.8161Z" fill="#C10230"/>
<path d="M51.7072 31.6744V36.0888H53.4972V33.6702C53.4972 33.2727 53.6981 33.0275 53.9775 33.0275C54.222 33.0275 54.3355 33.1882 54.3355 33.4419V36.0888H56.1256V33.0444C56.1256 32.0296 55.5667 31.5899 54.8158 31.5899C54.091 31.5899 53.6457 31.9789 53.4972 32.4609H53.4623V31.6744H51.7072Z" fill="#C10230"/>
<path d="M59.5411 30V32.1395H59.5062C59.4014 31.9366 59.087 31.5899 58.3797 31.5899C57.2969 31.5899 56.5809 32.4524 56.5809 33.907C56.5809 35.4545 57.3493 36.1734 58.2662 36.1734C59.0434 36.1734 59.4101 35.7252 59.5323 35.3023H59.5673V36.0888H61.3224V30H59.5411ZM59.5411 34.0254C59.5411 34.5581 59.3053 34.8457 58.956 34.8457C58.5893 34.8457 58.3797 34.5243 58.3797 33.8562C58.3797 33.2558 58.5806 32.8753 58.991 32.8753C59.314 32.8753 59.5411 33.1374 59.5411 33.6364V34.0254Z" fill="#C10230"/>
<path d="M61.9826 30V36.0888H63.7727V30H61.9826Z" fill="#C10230"/>
<path d="M64.2639 37.8478C64.587 37.9493 64.91 38 65.3204 38C66.5429 38 67.1192 37.3911 67.5122 36.241L69.084 31.6744H67.259L66.8835 33.2727C66.8049 33.6279 66.7263 34.0085 66.6564 34.3805H66.6215C66.5517 34 66.4469 33.5687 66.377 33.2727L65.9754 31.6744H64.098L65.5649 36.1311L65.5126 36.2579C65.4165 36.5285 65.2244 36.6216 64.7703 36.6216C64.5433 36.6216 64.3774 36.5877 64.2639 36.5539V37.8478Z" fill="#C10230"/>
<path d="M70.9244 34.186C70.8283 35.4207 71.8063 36.1903 73.3955 36.1903C74.9673 36.1903 75.9453 35.4884 75.9453 34.203C75.9453 32.9598 75.107 32.6977 73.5876 32.4778C73.0812 32.4017 72.8279 32.3002 72.8279 32.0465C72.8279 31.8351 72.9939 31.6575 73.3606 31.6575C73.7972 31.6575 74.0417 31.8943 74.0068 32.2241H75.823C75.9016 30.9641 74.749 30.3214 73.4217 30.3214C72.0857 30.3214 70.9942 30.8964 70.9942 32.2156C70.9942 33.4926 71.9373 33.797 73.282 34C73.8409 34.093 74.0854 34.186 74.0854 34.4567C74.0854 34.7104 73.8933 34.8626 73.4828 34.8626C72.9764 34.8626 72.7144 34.6427 72.7581 34.186H70.9244Z" fill="#C10230"/>
<path d="M76.4536 31.6744V36.0888H78.2436V33.6702C78.2436 33.2727 78.4445 33.0275 78.7239 33.0275C78.9684 33.0275 79.0819 33.1882 79.0819 33.4419V36.0888H80.872V33.0444C80.872 32.0296 80.3131 31.5899 79.5622 31.5899C78.8374 31.5899 78.3921 31.9789 78.2436 32.4609H78.2087V31.6744H76.4536Z" fill="#C10230"/>
<path d="M81.2837 34.9133C81.2837 35.7167 81.8076 36.1734 82.6284 36.1734C83.3444 36.1734 83.7374 35.8351 83.912 35.4884H83.9382C84.0692 35.8943 84.27 36.1649 85.0908 36.1649C85.4401 36.1649 85.7894 36.0803 85.9029 35.9873V34.7611C85.8593 34.7949 85.8069 34.8118 85.7457 34.8118C85.6148 34.8118 85.5798 34.7188 85.5798 34.4905V33.2896C85.5798 32.2326 84.8813 31.5899 83.5453 31.5899C82.3228 31.5899 81.4496 32.2241 81.4496 33.1628C81.4496 33.2389 81.4496 33.3066 81.4583 33.3911H83.1436C83.1261 33.3066 83.1261 33.2474 83.1261 33.1882C83.1261 32.9514 83.2833 32.833 83.4929 32.833C83.7374 32.833 83.8684 32.9598 83.8684 33.222V33.5433C82.6109 33.5518 81.2837 33.7463 81.2837 34.9133ZM83.8684 34.778C83.7985 34.9387 83.6064 35.0486 83.3968 35.0486C83.1873 35.0486 83.0737 34.9302 83.0737 34.7442C83.0737 34.4651 83.3532 34.3383 83.8684 34.3214V34.778Z" fill="#C10230"/>
<path d="M86.1451 33.8985C86.1451 35.4123 87.1318 36.1734 88.4678 36.1734C89.83 36.1734 90.6421 35.3869 90.7032 34.1353H88.9655C88.9306 34.5243 88.7996 34.8457 88.4765 34.8457C88.1447 34.8457 87.9439 34.5243 87.9439 33.8901C87.9439 33.2304 88.1535 32.9091 88.494 32.9091C88.7909 32.9091 88.9568 33.1882 88.9743 33.6448H90.7032C90.677 32.4186 89.8824 31.5899 88.494 31.5899C87.1929 31.5899 86.1451 32.4017 86.1451 33.8985Z" fill="#C10230"/>
<path d="M96 31.6744H94.0615L93.3804 32.6131C93.2319 32.833 93.1446 32.9345 93.0136 33.1797H92.9874V30H91.1974V36.0888H92.9874V35.0148L93.3105 34.6765L93.948 36.0888H95.9913L94.664 33.4419L96 31.6744Z" fill="#C10230"/>
<path d="M10.5829 12.0128H17.0616L16.1904 16.7877H9.50629H9.0888L9.01431 17.1985L7.41661 26.0095H0.598453L4.83874 2.54477H21.5066L20.5877 7.63299H11.1785H10.7589L10.6861 8.04622L10.0905 11.4261L9.9871 12.0128H10.5829Z" fill="#C10230" stroke="#C10230"/>
<path d="M24.2863 7.51385H31.1289L30.5921 10.5299L30.292 12.2158L31.4521 10.9563C32.4526 9.86998 33.5317 8.99049 34.7326 8.35041C35.7262 7.82086 36.7034 7.50394 37.6548 7.40951L36.4131 14.5718H34.5891C33.0619 14.5718 31.8013 14.8213 30.903 15.4139C29.946 16.0297 29.3926 17.0742 29.1491 18.4303C29.1491 18.4303 29.1491 18.4304 29.1491 18.4304L27.7803 26.0096H20.9397L24.2863 7.51385Z" fill="#C10230" stroke="#C10230"/>
<path d="M54.0879 7.53621H60.9248L57.5821 26.0095H50.7406L51.1617 23.6658L51.4902 21.8377L50.2884 23.2538C49.5573 24.1153 48.6499 24.8146 47.5796 25.37C46.533 25.891 45.3288 26.1662 44.0267 26.1662C42.199 26.1662 40.8567 25.6592 39.9224 24.6879C39.0002 23.7056 38.5022 22.3406 38.5022 20.5109C38.5022 19.8505 38.5675 19.1643 38.7003 18.429C38.7004 18.4288 38.7004 18.4287 38.7004 18.4286L40.687 7.53621H47.4822L45.7109 17.2879L45.7085 17.3008L45.7068 17.3138C45.6609 17.673 45.6341 17.9693 45.6341 18.1382C45.6341 18.9477 45.8688 19.6562 46.4082 20.1572C46.9447 20.6782 47.661 20.8766 48.4706 20.8766C49.4361 20.8766 50.2671 20.5659 50.9587 19.9421C51.6454 19.3227 52.0812 18.5048 52.2824 17.4975L52.2824 17.4975L52.284 17.4888L54.0879 7.53621Z" fill="#C10230" stroke="#C10230"/>
<path d="M78.7356 7.53621H85.5725L82.2298 26.0095H75.3883L75.8094 23.6658L76.1379 21.8377L74.9361 23.2538C74.205 24.1153 73.2976 24.8146 72.2273 25.37C71.1807 25.891 69.9765 26.1662 68.6744 26.1662C66.8467 26.1662 65.5044 25.6592 64.5701 24.6879C63.6479 23.7056 63.1499 22.3406 63.1499 20.5109C63.1499 19.8505 63.2152 19.1643 63.348 18.429C63.3481 18.4288 63.3481 18.4287 63.3481 18.4286L65.3347 7.53621H72.1299L70.3586 17.2879L70.3562 17.3008L70.3545 17.3138C70.3086 17.673 70.2818 17.9693 70.2818 18.1382C70.2818 18.9477 70.5165 19.6562 71.0559 20.1572C71.5924 20.6782 72.3087 20.8766 73.1183 20.8766C74.0838 20.8766 74.9148 20.5659 75.6064 19.9421C76.2931 19.3227 76.7289 18.5048 76.9301 17.4975L76.9302 17.4975L76.9317 17.4888L78.7356 7.53621Z" fill="#C10230" stroke="#C10230"/>
<path d="M89.7715 12.893H87.8971L88.8829 7.49145H90.9398H91.3577L91.4318 7.08017L92.2052 2.79099H99.0461L98.3047 6.90272L98.1986 7.49145H98.7968H101.45L100.464 12.893H97.6285H97.2096L97.1363 13.3055L96.2002 18.5705C96.1731 18.6797 96.1435 18.8296 96.1435 19.0112C96.1435 19.459 96.3016 19.8644 96.669 20.1373C97.0084 20.3893 97.4557 20.4737 97.9263 20.4737H99.2033L98.1749 26.0095H95.6127C93.3442 26.0095 91.739 25.5381 90.7065 24.6811C89.6919 23.839 89.1491 22.5559 89.1491 20.7347C89.1491 20.0739 89.2145 19.3646 89.3476 18.606C89.3476 18.6057 89.3477 18.6054 89.3477 18.6052L90.2637 13.481L90.3688 12.893H89.7715Z" fill="#C10230" stroke="#C10230"/>
<path d="M103.951 6.07373C105.102 6.07373 106.035 5.1618 106.035 4.03687C106.035 2.91194 105.102 2 103.951 2C102.799 2 101.866 2.91194 101.866 4.03687C101.866 5.1618 102.799 6.07373 103.951 6.07373Z" stroke="#C10230" stroke-width="0.3" stroke-miterlimit="10"/>
<mask id="path-8-inside-1" fill="white">
<path d="M104.455 5.13362L103.905 4.21591H103.607V5.13362H103.218V2.82816H104.042C104.226 2.82816 104.386 2.85054 104.501 2.91769C104.615 2.98484 104.73 3.05199 104.775 3.1639C104.844 3.27582 104.867 3.38773 104.867 3.52203C104.867 3.67871 104.821 3.81301 104.73 3.92493C104.638 4.03684 104.501 4.12638 104.317 4.17114L104.913 5.13362H104.455ZM103.607 3.90255H104.042C104.18 3.90255 104.294 3.85778 104.363 3.79063C104.432 3.72348 104.478 3.63395 104.478 3.49965C104.478 3.36535 104.432 3.27582 104.363 3.20867C104.294 3.14152 104.18 3.09675 104.042 3.09675H103.607V3.90255Z"/>
</mask>
<path d="M104.455 5.13362L103.905 4.21591H103.607V5.13362H103.218V2.82816H104.042C104.226 2.82816 104.386 2.85054 104.501 2.91769C104.615 2.98484 104.73 3.05199 104.775 3.1639C104.844 3.27582 104.867 3.38773 104.867 3.52203C104.867 3.67871 104.821 3.81301 104.73 3.92493C104.638 4.03684 104.501 4.12638 104.317 4.17114L104.913 5.13362H104.455ZM103.607 3.90255H104.042C104.18 3.90255 104.294 3.85778 104.363 3.79063C104.432 3.72348 104.478 3.63395 104.478 3.49965C104.478 3.36535 104.432 3.27582 104.363 3.20867C104.294 3.14152 104.18 3.09675 104.042 3.09675H103.607V3.90255Z" fill="#C10230"/>
<path d="M103.905 4.21591L104.763 3.70201L104.472 3.21591H103.905V4.21591ZM103.607 4.21591V3.21591H102.607V4.21591H103.607ZM103.607 5.13362V6.13362H104.607V5.13362H103.607ZM103.218 5.13362H102.218V6.13362H103.218V5.13362ZM103.218 2.82816V1.82816H102.218V2.82816H103.218ZM104.775 3.1639L103.85 3.54275L103.881 3.61793L103.923 3.68716L104.775 3.1639ZM104.317 4.17114L104.08 3.19971L102.742 3.52646L103.467 4.69734L104.317 4.17114ZM104.913 5.13362V6.13362H106.708L105.763 4.60742L104.913 5.13362ZM103.607 3.90255H102.607V4.90255H103.607V3.90255ZM103.607 3.09675V2.09675H102.607V3.09675H103.607ZM105.313 4.61972L104.763 3.70201L103.047 4.72981L103.597 5.64752L105.313 4.61972ZM103.905 3.21591H103.607V5.21591H103.905V3.21591ZM102.607 4.21591V5.13362H104.607V4.21591H102.607ZM103.607 4.13362H103.218V6.13362H103.607V4.13362ZM104.218 5.13362V2.82816H102.218V5.13362H104.218ZM103.218 3.82816H104.042V1.82816H103.218V3.82816ZM104.042 3.82816C104.068 3.82816 104.088 3.82896 104.102 3.82998C104.115 3.83101 104.121 3.83206 104.119 3.83176C104.118 3.83149 104.105 3.8292 104.085 3.82231C104.065 3.81537 104.033 3.80266 103.995 3.78036L105.006 2.05502C104.652 1.84738 104.266 1.82816 104.042 1.82816V3.82816ZM103.995 3.78036C104.026 3.79874 104.039 3.80665 104.05 3.81312C104.059 3.81882 104.052 3.81495 104.037 3.80308C104.009 3.78051 103.913 3.69773 103.85 3.54275L105.701 2.78506C105.592 2.51816 105.416 2.34585 105.291 2.24494C105.174 2.1511 105.05 2.0806 105.006 2.05502L103.995 3.78036ZM103.923 3.68716C103.903 3.65462 103.886 3.61393 103.875 3.57131C103.866 3.53265 103.867 3.51114 103.867 3.52203H105.867C105.867 3.25658 105.818 2.95011 105.628 2.64064L103.923 3.68716ZM103.867 3.52203C103.867 3.50193 103.87 3.46447 103.886 3.41742C103.903 3.36935 103.928 3.32608 103.956 3.29145L105.503 4.55841C105.754 4.25245 105.867 3.88903 105.867 3.52203H103.867ZM103.956 3.29145C103.983 3.25822 104.012 3.23492 104.037 3.21978C104.061 3.20471 104.078 3.20023 104.08 3.19971L104.555 5.14258C104.929 5.05107 105.262 4.85301 105.503 4.55841L103.956 3.29145ZM103.467 4.69734L104.063 5.65982L105.763 4.60742L105.168 3.64494L103.467 4.69734ZM104.913 4.13362H104.455V6.13362H104.913V4.13362ZM103.607 4.90255H104.042V2.90255H103.607V4.90255ZM104.042 4.90255C104.379 4.90255 104.766 4.79507 105.062 4.50586L103.664 3.0754C103.747 2.9944 103.83 2.95233 103.89 2.93088C103.951 2.90871 104.004 2.90255 104.042 2.90255V4.90255ZM105.062 4.50586C105.323 4.2509 105.478 3.90366 105.478 3.49965H103.478C103.478 3.45039 103.487 3.37207 103.525 3.282C103.563 3.1911 103.616 3.12214 103.664 3.0754L105.062 4.50586ZM105.478 3.49965C105.478 3.09564 105.323 2.7484 105.062 2.49344L103.664 3.9239C103.616 3.87716 103.563 3.80819 103.525 3.7173C103.487 3.62723 103.478 3.54891 103.478 3.49965H105.478ZM105.062 2.49344C104.766 2.20423 104.379 2.09675 104.042 2.09675V4.09675C104.004 4.09675 103.951 4.09059 103.89 4.06842C103.83 4.04697 103.747 4.0049 103.664 3.9239L105.062 2.49344ZM104.042 2.09675H103.607V4.09675H104.042V2.09675ZM102.607 3.09675V3.90255H104.607V3.09675H102.607Z" fill="#C10230" mask="url(#path-8-inside-1)"/>
</svg>
