<svg width="96" height="58" viewBox="0 0 96 58" fill="none" xmlns="http://www.w3.org/2000/svg">
<mask id="path-1-inside-1" fill="white">
<path d="M85.5866 2.41043L68.293 9.03629C57.2767 2.1799 51.5779 0.726606 48.7244 0.726606C47.7929 0.726606 47.1956 0.882876 46.8379 1.03134C45.3601 1.38685 43.8784 2.08227 42.4635 2.94569C37.0515 2.57455 29.297 5.74685 26.848 6.81729L15.9806 0L0 24.3902L19.1872 38.216C18.5977 39.681 18.5663 41.1617 19.1086 42.5096C20.1816 45.1622 23.0271 46.4242 23.3493 46.5609L23.8485 45.381C23.931 46.2288 24.0882 46.8421 24.1629 47.1118C24.4695 48.9675 25.4481 49.9246 26.2263 50.4013C27.1263 50.96 28.1403 51.1241 29.0207 51.1241C29.5238 51.1241 29.9875 51.0694 30.3609 51.0068C30.3648 51.0186 30.3687 51.0303 30.3727 51.0381C30.7107 52.8078 31.7011 53.7026 32.4833 54.1401C33.3086 54.605 34.2322 54.7574 35.1048 54.7574C36.1031 54.7574 37.0267 54.5542 37.6476 54.3745C38.9367 56.0661 40.6739 56.6404 41.0945 56.7576C41.798 56.992 42.4662 57.1092 43.0832 57.1092C45.2606 57.1092 46.4907 55.6989 47.0489 54.1558L52.0246 57.289L52.0757 57.3202C52.2329 57.4101 53.3137 58 54.6775 58C55.2041 58 55.774 57.9101 56.3518 57.6718C57.6252 57.1444 58.5567 56.0427 59.1383 54.398C59.6178 54.5347 60.1248 54.6168 60.6475 54.6168C61.9563 54.6168 63.3555 54.1206 64.621 52.7727L64.7271 52.6594L64.8097 52.5227C64.9905 52.2258 65.7097 50.9834 66.0477 49.7332C66.3346 49.7723 66.6215 49.7958 66.9124 49.7958C68.1465 49.7958 69.4081 49.4051 70.485 48.3347C70.5597 48.2604 72.0571 46.7407 72.5012 44.4631C72.8078 44.5099 73.1144 44.5412 73.4327 44.5412C74.6 44.5412 75.8105 44.1857 76.8559 43.1933C76.9503 43.1035 78.8878 41.2243 78.8328 37.9465C79.5049 37.7981 79.9726 37.5598 80.1612 37.4504L96 29.0938L85.5866 2.41043ZM25.6464 38.2161L25.5835 38.306C24.3926 40.107 23.9446 41.9236 23.8306 43.4472C23.1546 43.0253 22.2585 42.3065 21.893 41.4001C21.6257 40.7359 21.6611 40.021 22.0109 39.2201L22.062 39.0834C22.0698 39.056 22.9581 36.4346 25.0332 36.1572C25.3516 36.2431 26.0748 36.4775 26.735 36.9854C26.1494 37.5792 25.7603 38.0675 25.6464 38.2161L25.6464 38.2161ZM31.927 42.0721C30.5868 44.4396 30.1308 46.4789 30.0483 48.026C29.4588 48.1471 28.4329 48.2526 27.808 47.8619C27.6705 47.776 27.2617 47.522 27.1202 46.5609L27.1006 46.432L27.0613 46.307C27.0495 46.2758 26.0277 43.1152 28.0596 39.9937C28.9203 38.8997 31.0858 36.798 32.5361 37.0011C33.3811 37.1183 33.9824 38.2004 34.3441 39.0873L34.3834 39.0716C32.9724 40.2788 32.0802 41.7986 31.9269 42.072L31.927 42.0721ZM36.6629 47.0767C36.2227 48.7488 36.1402 50.2646 36.4114 51.6125C35.6096 51.7922 34.576 51.882 33.9628 51.5421C33.7427 51.421 33.4401 51.171 33.3143 50.4092L33.2947 50.2607L33.2279 50.1006C33.1886 49.9951 32.2846 47.5221 34.5445 43.5294C35.1065 42.5371 36.7022 40.4938 38.0896 40.4938H38.1053C38.7538 40.5016 39.4691 41.029 40.1687 42.0018C37.8892 43.1113 36.8948 45.557 36.6629 47.0767L36.6629 47.0767ZM44.8457 49.1825L44.4527 51.8273L44.437 52.0383C44.433 52.2531 44.3741 54.1244 43.0889 54.1244C42.7863 54.1244 42.4286 54.0541 42.0199 53.9174L41.8981 53.8822C41.8863 53.8783 40.5579 53.4994 39.8072 52.2336C39.1548 51.128 39.0801 49.6278 39.5832 47.7642L39.6185 47.5845C39.6657 47.2642 40.1491 44.4708 42.7273 44.3966C43.195 44.4864 45.2348 45.1272 44.8458 49.1824L44.8457 49.1825ZM74.7987 41.0291C73.541 42.2245 71.5642 41.0838 71.1632 40.8298L60.9528 31.4692L58.9209 33.6609L69.2178 43.1035L69.375 43.2325C69.4536 43.2872 69.5401 43.3419 69.6305 43.3965C69.5401 45.0062 68.3768 46.2172 68.3689 46.2211C67.0444 47.5377 64.7334 46.1977 64.2736 45.9086L54.9746 36.9582L52.8876 39.103L62.3714 48.2292L62.4696 48.2956C62.6897 48.4479 62.9373 48.6042 63.2124 48.7527C63.1181 49.2567 62.7172 50.1631 62.3281 50.8389C60.7442 52.4016 59.1918 51.2452 58.7476 50.8467L50.1482 42.994L48.1163 45.1896L56.531 52.8742L56.476 52.8586C56.2755 53.6322 55.8904 54.6127 55.2065 54.9058C54.5423 55.1871 53.6934 54.7847 53.5912 54.73L47.6328 50.9795L47.5935 51.0381L47.8136 49.577L47.8215 49.5028C48.1909 45.7523 46.9333 43.7598 45.8131 42.748C44.8934 41.9197 43.9148 41.5994 43.3763 41.4783C41.9025 38.8647 40.1377 37.5247 38.1295 37.5012H38.0823C37.7011 37.5012 37.3356 37.552 36.9818 37.6379C36.0307 35.4853 34.6708 34.2703 32.9337 34.032C31.562 33.8444 30.2257 34.3445 29.0781 35.0594C27.4706 33.5514 25.4858 33.188 25.3836 33.1685L25.2107 33.1412L25.0378 33.1529C22.9665 33.2779 21.5476 34.4109 20.628 35.5673L4.07387 23.6398L16.8862 4.09421L26.6332 10.2083L27.376 9.86061C29.3372 8.94252 33.9317 7.08684 38.0543 6.28204C35.3228 8.71596 33.4126 11.0757 33.2633 11.2593L33.169 11.3882C30.3824 15.7404 32.8821 17.8305 33 17.9282C34.2459 18.9166 35.7473 19.4167 37.4569 19.4167H37.4608C41.8745 19.4167 46.5122 15.9904 47.7819 14.9825L50.702 14.4785C53.8462 23.1593 63.141 26.8941 65.1181 27.6012L66.6628 29.1366L71.666 34.2037C73.0769 36.286 74.5469 37.2939 75.8321 37.7433C75.9579 39.8294 74.8377 40.9859 74.7985 41.0289L74.7987 41.0291ZM78.7289 34.8252L78.6385 34.876C78.5639 34.915 78.1984 35.0869 77.6796 35.0869C76.4769 35.0869 75.231 34.1727 74.0795 32.4382L74.0009 32.321L68.7893 27.0391L66.7338 24.9958L66.3918 24.8864C66.2857 24.8513 55.6271 21.3196 53.1781 12.3968L52.8204 11.088L46.4691 12.1859L46.1547 12.4515C46.1076 12.4906 41.403 16.4364 37.4531 16.4364C36.4549 16.4364 35.6295 16.1786 34.9417 15.659C34.7963 15.4285 34.6823 14.6003 35.6491 13.061C36.2544 12.3265 42.3109 5.10681 47.6565 3.90355L48.0574 3.76681C48.1635 3.74337 48.3718 3.70821 48.7177 3.70821C50.3723 3.70821 55.4935 4.51301 67.3193 11.9554L67.96 12.3578L83.8662 6.25929L92.2415 27.6921L78.7289 34.8252Z"/>
</mask>
<path d="M85.5866 2.41043L68.293 9.03629C57.2767 2.1799 51.5779 0.726606 48.7244 0.726606C47.7929 0.726606 47.1956 0.882876 46.8379 1.03134C45.3601 1.38685 43.8784 2.08227 42.4635 2.94569C37.0515 2.57455 29.297 5.74685 26.848 6.81729L15.9806 0L0 24.3902L19.1872 38.216C18.5977 39.681 18.5663 41.1617 19.1086 42.5096C20.1816 45.1622 23.0271 46.4242 23.3493 46.5609L23.8485 45.381C23.931 46.2288 24.0882 46.8421 24.1629 47.1118C24.4695 48.9675 25.4481 49.9246 26.2263 50.4013C27.1263 50.96 28.1403 51.1241 29.0207 51.1241C29.5238 51.1241 29.9875 51.0694 30.3609 51.0068C30.3648 51.0186 30.3687 51.0303 30.3727 51.0381C30.7107 52.8078 31.7011 53.7026 32.4833 54.1401C33.3086 54.605 34.2322 54.7574 35.1048 54.7574C36.1031 54.7574 37.0267 54.5542 37.6476 54.3745C38.9367 56.0661 40.6739 56.6404 41.0945 56.7576C41.798 56.992 42.4662 57.1092 43.0832 57.1092C45.2606 57.1092 46.4907 55.6989 47.0489 54.1558L52.0246 57.289L52.0757 57.3202C52.2329 57.4101 53.3137 58 54.6775 58C55.2041 58 55.774 57.9101 56.3518 57.6718C57.6252 57.1444 58.5567 56.0427 59.1383 54.398C59.6178 54.5347 60.1248 54.6168 60.6475 54.6168C61.9563 54.6168 63.3555 54.1206 64.621 52.7727L64.7271 52.6594L64.8097 52.5227C64.9905 52.2258 65.7097 50.9834 66.0477 49.7332C66.3346 49.7723 66.6215 49.7958 66.9124 49.7958C68.1465 49.7958 69.4081 49.4051 70.485 48.3347C70.5597 48.2604 72.0571 46.7407 72.5012 44.4631C72.8078 44.5099 73.1144 44.5412 73.4327 44.5412C74.6 44.5412 75.8105 44.1857 76.8559 43.1933C76.9503 43.1035 78.8878 41.2243 78.8328 37.9465C79.5049 37.7981 79.9726 37.5598 80.1612 37.4504L96 29.0938L85.5866 2.41043ZM25.6464 38.2161L25.5835 38.306C24.3926 40.107 23.9446 41.9236 23.8306 43.4472C23.1546 43.0253 22.2585 42.3065 21.893 41.4001C21.6257 40.7359 21.6611 40.021 22.0109 39.2201L22.062 39.0834C22.0698 39.056 22.9581 36.4346 25.0332 36.1572C25.3516 36.2431 26.0748 36.4775 26.735 36.9854C26.1494 37.5792 25.7603 38.0675 25.6464 38.2161L25.6464 38.2161ZM31.927 42.0721C30.5868 44.4396 30.1308 46.4789 30.0483 48.026C29.4588 48.1471 28.4329 48.2526 27.808 47.8619C27.6705 47.776 27.2617 47.522 27.1202 46.5609L27.1006 46.432L27.0613 46.307C27.0495 46.2758 26.0277 43.1152 28.0596 39.9937C28.9203 38.8997 31.0858 36.798 32.5361 37.0011C33.3811 37.1183 33.9824 38.2004 34.3441 39.0873L34.3834 39.0716C32.9724 40.2788 32.0802 41.7986 31.9269 42.072L31.927 42.0721ZM36.6629 47.0767C36.2227 48.7488 36.1402 50.2646 36.4114 51.6125C35.6096 51.7922 34.576 51.882 33.9628 51.5421C33.7427 51.421 33.4401 51.171 33.3143 50.4092L33.2947 50.2607L33.2279 50.1006C33.1886 49.9951 32.2846 47.5221 34.5445 43.5294C35.1065 42.5371 36.7022 40.4938 38.0896 40.4938H38.1053C38.7538 40.5016 39.4691 41.029 40.1687 42.0018C37.8892 43.1113 36.8948 45.557 36.6629 47.0767L36.6629 47.0767ZM44.8457 49.1825L44.4527 51.8273L44.437 52.0383C44.433 52.2531 44.3741 54.1244 43.0889 54.1244C42.7863 54.1244 42.4286 54.0541 42.0199 53.9174L41.8981 53.8822C41.8863 53.8783 40.5579 53.4994 39.8072 52.2336C39.1548 51.128 39.0801 49.6278 39.5832 47.7642L39.6185 47.5845C39.6657 47.2642 40.1491 44.4708 42.7273 44.3966C43.195 44.4864 45.2348 45.1272 44.8458 49.1824L44.8457 49.1825ZM74.7987 41.0291C73.541 42.2245 71.5642 41.0838 71.1632 40.8298L60.9528 31.4692L58.9209 33.6609L69.2178 43.1035L69.375 43.2325C69.4536 43.2872 69.5401 43.3419 69.6305 43.3965C69.5401 45.0062 68.3768 46.2172 68.3689 46.2211C67.0444 47.5377 64.7334 46.1977 64.2736 45.9086L54.9746 36.9582L52.8876 39.103L62.3714 48.2292L62.4696 48.2956C62.6897 48.4479 62.9373 48.6042 63.2124 48.7527C63.1181 49.2567 62.7172 50.1631 62.3281 50.8389C60.7442 52.4016 59.1918 51.2452 58.7476 50.8467L50.1482 42.994L48.1163 45.1896L56.531 52.8742L56.476 52.8586C56.2755 53.6322 55.8904 54.6127 55.2065 54.9058C54.5423 55.1871 53.6934 54.7847 53.5912 54.73L47.6328 50.9795L47.5935 51.0381L47.8136 49.577L47.8215 49.5028C48.1909 45.7523 46.9333 43.7598 45.8131 42.748C44.8934 41.9197 43.9148 41.5994 43.3763 41.4783C41.9025 38.8647 40.1377 37.5247 38.1295 37.5012H38.0823C37.7011 37.5012 37.3356 37.552 36.9818 37.6379C36.0307 35.4853 34.6708 34.2703 32.9337 34.032C31.562 33.8444 30.2257 34.3445 29.0781 35.0594C27.4706 33.5514 25.4858 33.188 25.3836 33.1685L25.2107 33.1412L25.0378 33.1529C22.9665 33.2779 21.5476 34.4109 20.628 35.5673L4.07387 23.6398L16.8862 4.09421L26.6332 10.2083L27.376 9.86061C29.3372 8.94252 33.9317 7.08684 38.0543 6.28204C35.3228 8.71596 33.4126 11.0757 33.2633 11.2593L33.169 11.3882C30.3824 15.7404 32.8821 17.8305 33 17.9282C34.2459 18.9166 35.7473 19.4167 37.4569 19.4167H37.4608C41.8745 19.4167 46.5122 15.9904 47.7819 14.9825L50.702 14.4785C53.8462 23.1593 63.141 26.8941 65.1181 27.6012L66.6628 29.1366L71.666 34.2037C73.0769 36.286 74.5469 37.2939 75.8321 37.7433C75.9579 39.8294 74.8377 40.9859 74.7985 41.0289L74.7987 41.0291ZM78.7289 34.8252L78.6385 34.876C78.5639 34.915 78.1984 35.0869 77.6796 35.0869C76.4769 35.0869 75.231 34.1727 74.0795 32.4382L74.0009 32.321L68.7893 27.0391L66.7338 24.9958L66.3918 24.8864C66.2857 24.8513 55.6271 21.3196 53.1781 12.3968L52.8204 11.088L46.4691 12.1859L46.1547 12.4515C46.1076 12.4906 41.403 16.4364 37.4531 16.4364C36.4549 16.4364 35.6295 16.1786 34.9417 15.659C34.7963 15.4285 34.6823 14.6003 35.6491 13.061C36.2544 12.3265 42.3109 5.10681 47.6565 3.90355L48.0574 3.76681C48.1635 3.74337 48.3718 3.70821 48.7177 3.70821C50.3723 3.70821 55.4935 4.51301 67.3193 11.9554L67.96 12.3578L83.8662 6.25929L92.2415 27.6921L78.7289 34.8252Z" fill="#333333" stroke="white" stroke-width="0.5" mask="url(#path-1-inside-1)"/>
</svg>
