<svg width="67" height="64" viewBox="0 0 67 64" fill="none" xmlns="http://www.w3.org/2000/svg">
<path d="M32.3752 25.0116C32.3752 24.6452 32.1977 24.2988 31.9 24.0841C31.6023 23.8665 31.2187 23.8093 30.8695 23.9238C27.1079 25.1747 23.2149 30.2045 23.2149 36.462C23.2149 39.6396 24.5403 43.7819 30.8123 45.5456C32.3381 46.3987 34.0643 46.8224 35.8106 46.768C42.1514 46.768 43.8264 39.2791 43.8264 35.3173C43.8293 34.9194 43.626 34.5501 43.2854 34.3383C42.9476 34.1293 42.5267 34.1093 42.169 34.2868C40.5229 34.991 38.748 35.3403 36.956 35.3116C36.7499 35.3116 36.5638 35.3288 36.372 35.3402C36.0342 33.2734 35.1583 31.3296 33.8329 29.7065C32.9712 28.7761 32.4359 27.591 32.3071 26.3314C32.3071 26.0737 32.3271 25.8361 32.3443 25.6243C32.3615 25.4124 32.3758 25.1891 32.3758 25.0117L32.3752 25.0116ZM41.4097 36.9951C41.0863 39.6402 39.9298 44.4781 35.8104 44.4781C35.2951 44.4925 34.7769 44.4581 34.2674 44.3751C35.5498 43.7052 36.7264 42.8579 37.7655 41.8559C38.2006 41.4065 38.1921 40.6909 37.7512 40.25C37.3104 39.8091 36.5947 39.8005 36.1453 40.2357C35.0173 41.2977 33.7206 42.1651 32.3064 42.7978C32.3064 42.7119 32.315 42.6231 32.3207 42.5344C32.3207 42.4686 32.3293 42.3999 32.335 42.3311C32.3436 42.2224 32.3579 42.1107 32.3694 41.9991C32.378 41.9275 32.3865 41.8588 32.398 41.7872C32.418 41.6441 32.4438 41.501 32.4724 41.3578C32.4867 41.2863 32.5068 41.2147 32.5211 41.146C32.544 41.0458 32.5698 40.9456 32.5984 40.8454C32.6213 40.7681 32.6442 40.6908 32.6699 40.6164C32.6957 40.542 32.7329 40.4303 32.7701 40.3359C32.8045 40.2443 32.8303 40.1784 32.8646 40.1069C32.9047 40.0124 32.9534 39.9179 32.9992 39.8263C33.0364 39.7547 33.0679 39.6832 33.1137 39.6145H33.1108C33.1967 39.4628 33.2911 39.3196 33.3942 39.1822C33.4371 39.125 33.4887 39.0677 33.5373 39.0162C33.6089 38.9303 33.6833 38.8444 33.7664 38.7643C33.8236 38.707 33.8894 38.6498 33.9524 38.5982C34.0326 38.5267 34.1185 38.458 34.2101 38.3921C34.2788 38.3435 34.3503 38.2948 34.4248 38.249C34.5278 38.186 34.6395 38.1345 34.7511 38.0744C34.8227 38.04 34.8942 38.0028 34.9687 37.9713L34.9715 37.9685C35.1605 37.894 35.358 37.831 35.5555 37.7824C35.5727 37.7824 35.587 37.7709 35.6042 37.7681C36.0508 37.6679 36.506 37.6192 36.964 37.6249C38.4669 37.6192 39.9641 37.4074 41.4097 36.9894L41.4097 36.9951ZM34.1242 35.8128C34.0842 35.8299 34.0527 35.8528 34.0097 35.87C33.7235 35.9902 33.4458 36.1334 33.1824 36.2966C33.108 36.3424 33.0336 36.3882 32.962 36.4368C32.6872 36.6229 32.4267 36.8319 32.1891 37.0638C32.1633 37.0867 32.1433 37.1153 32.1175 37.141C31.9085 37.3529 31.7196 37.579 31.545 37.8166C31.4963 37.8853 31.4476 37.9483 31.4018 38.017V38.0199C31.2215 38.2804 31.0612 38.5552 30.918 38.8386C30.9123 38.8529 30.9066 38.8673 30.9009 38.8816C30.7692 39.1593 30.6547 39.4427 30.5573 39.7318C30.5316 39.8091 30.5058 39.8835 30.48 39.9608C30.3884 40.2528 30.3026 40.5505 30.2396 40.8454V40.8654C30.1737 41.1717 30.1251 41.478 30.0907 41.7815C30.0793 41.8559 30.0735 41.9303 30.065 42.0105C30.0363 42.2853 30.0163 42.5544 30.0077 42.8121V42.8636H30.0106C27.2366 41.9905 25.3902 39.3683 25.5047 36.4626C25.4532 32.744 27.1308 29.2115 30.0449 26.9012C30.2969 28.4298 30.9639 29.8612 31.9715 31.0377C33.1137 32.4004 33.858 34.0522 34.1242 35.8098L34.1242 35.8128Z" fill="#333333"/>
<path d="M26.7756 11.651C28.3443 11.6567 29.767 10.7264 30.3911 9.28641C31.0152 7.84651 30.7203 6.17467 29.644 5.03246L30.0848 4.27096V4.27382C30.7948 3.04572 32.103 2.29287 33.52 2.29287C34.9371 2.29287 36.2454 3.04572 36.9553 4.27382L57.1913 39.3244C57.2257 39.3787 57.2657 39.4274 57.3058 39.4732C57.323 39.4932 57.3373 39.5161 57.3574 39.5362V39.539C57.4461 39.6307 57.5492 39.7079 57.6637 39.7681C57.6894 39.7795 57.7152 39.7881 57.7438 39.7995C57.8526 39.8454 57.97 39.874 58.0873 39.8854C58.1045 39.8854 58.1188 39.8969 58.136 39.8969H58.1904C58.3221 39.894 58.4509 39.8683 58.5711 39.8225C58.6055 39.811 58.637 39.7967 58.6685 39.7824C58.6999 39.7681 58.7314 39.7623 58.7629 39.7452V39.7423C58.7944 39.7165 58.8259 39.6908 58.8574 39.6593C58.9204 39.6135 58.9805 39.562 59.0349 39.5018C59.0778 39.4503 59.1179 39.3931 59.1494 39.3358C59.1895 39.2728 59.221 39.207 59.2467 39.1383C59.2725 39.0696 59.2897 38.9951 59.2983 38.9236C59.3126 38.8864 59.3212 38.8492 59.3297 38.8091L59.742 29.872C59.7706 29.2394 59.2811 28.7012 58.6484 28.6726C58.0158 28.6439 57.4804 29.1306 57.4518 29.7633L57.2228 34.7959L38.942 3.12888C37.8227 1.19087 35.7558 0 33.5201 0C31.2843 0 29.2175 1.19087 28.1011 3.12888L27.666 3.88459H27.6631C26.5724 3.62981 25.4216 3.8531 24.5056 4.50007C23.5895 5.14703 22.9912 6.15469 22.8652 7.26824C22.7364 8.3818 23.0914 9.49829 23.8385 10.3342C24.5857 11.1729 25.6535 11.651 26.7756 11.651L26.7756 11.651ZM26.7756 6.06592C27.0561 6.06592 27.3338 6.14034 27.5771 6.28062C27.5829 6.28634 27.5886 6.29207 27.5915 6.29493C27.6 6.29493 27.6086 6.29493 27.6172 6.30352H27.6201C28.3186 6.73006 28.5962 7.60886 28.2699 8.36179C27.9407 9.11178 27.1077 9.50686 26.3204 9.28356C25.5303 9.05741 25.0265 8.28733 25.141 7.47431C25.2583 6.66415 25.954 6.06014 26.7727 6.06586L26.7756 6.06592Z" fill="#333333"/>
<path d="M9.24443 54.6229C8.37989 55.121 7.74151 55.934 7.45526 56.8902H6.57929C5.16226 56.8873 3.85112 56.1315 3.14407 54.9035C2.43413 53.6754 2.43699 52.1611 3.14407 50.9358L23.3772 15.8853C23.3944 15.8481 23.4058 15.8109 23.4173 15.7708C23.4488 15.7021 23.4745 15.6276 23.4917 15.5504C23.506 15.4816 23.5146 15.4101 23.5146 15.3385C23.5175 15.2669 23.5117 15.1954 23.5003 15.1238C23.4888 15.0465 23.4659 14.9692 23.4345 14.8948C23.4287 14.8547 23.4173 14.8175 23.403 14.7803C23.3887 14.7517 23.3629 14.7345 23.3457 14.7059C23.3028 14.6429 23.2541 14.5828 23.2026 14.5284C23.1482 14.4711 23.0909 14.4196 23.028 14.3738C23.0022 14.3566 22.9879 14.328 22.9593 14.3137C22.922 14.2994 22.8848 14.2879 22.8447 14.2765C22.7703 14.2421 22.6959 14.2163 22.6157 14.202C22.547 14.1849 22.4783 14.1791 22.4068 14.1763C22.3352 14.1734 22.2636 14.1791 22.1921 14.1906C22.1148 14.2049 22.0375 14.2278 21.963 14.2564C21.9258 14.2707 21.8886 14.2707 21.8485 14.2879L13.9191 18.4102C13.6415 18.5447 13.4296 18.7852 13.3294 19.0772C13.2321 19.372 13.2579 19.6926 13.3981 19.9674C13.5413 20.2423 13.7875 20.4455 14.0852 20.5371C14.38 20.6258 14.7006 20.5915 14.9697 20.4426L19.4441 18.1267L1.16035 49.7907C0.0410737 51.7288 0.0410737 54.1134 1.16035 56.0514C2.27677 57.9866 4.34368 59.1803 6.57937 59.1803H7.45249C7.83609 60.4857 8.87523 61.4963 10.1921 61.8397C10.5299 61.9285 10.8763 61.9743 11.2226 61.9743C12.4479 61.9714 13.6015 61.4018 14.3458 60.4284C15.0901 59.458 15.3391 58.1955 15.0214 57.0132C14.7036 55.8309 13.8563 54.8634 12.7255 54.3967C11.5919 53.9273 10.3094 54.0131 9.24736 54.6229L9.24443 54.6229ZM12.0384 59.4609H12.0355C11.4601 59.7929 10.7388 59.7471 10.2091 59.3406C9.67954 58.937 9.44764 58.2528 9.61943 57.6087C9.79405 56.9646 10.3351 56.4866 10.9964 56.4007C11.6576 56.3119 12.3046 56.6326 12.6396 57.2108C12.8628 57.5858 12.923 58.0381 12.8085 58.4618C12.6968 58.8855 12.4191 59.2462 12.0355 59.4609L12.0384 59.4609Z" fill="#333333"/>
<path d="M65.8399 49.7795L65.4047 49.0238C66.1719 48.2051 66.5527 47.0972 66.4525 45.978C66.3523 44.8587 65.7769 43.8367 64.8752 43.1697C63.9735 42.5027 62.8283 42.2508 61.7291 42.4798C60.6298 42.7088 59.6822 43.3958 59.1212 44.3691C58.3254 45.7261 58.417 47.4265 59.3531 48.6918C60.292 49.9542 61.8922 50.5353 63.4209 50.1689L63.8561 50.9246C64.566 52.1498 64.566 53.6642 63.8589 54.8923C63.149 56.1204 61.8407 56.8761 60.4208 56.879H19.948C19.9079 56.879 19.8736 56.899 19.8335 56.9019C19.7562 56.9076 19.6789 56.9248 19.6045 56.9477C19.5386 56.9706 19.4728 56.9992 19.4098 57.0335C19.3468 57.065 19.2867 57.108 19.2323 57.1538C19.1722 57.2024 19.1178 57.2597 19.0692 57.3198C19.0463 57.3513 19.009 57.3713 18.989 57.4057H18.9861C18.9747 57.4343 18.9632 57.4629 18.9518 57.4916C18.9174 57.5603 18.8888 57.6318 18.8688 57.7063C18.8459 57.7807 18.8316 57.858 18.8258 57.9353C18.8172 57.9668 18.8115 57.9983 18.8058 58.0298C18.8115 58.067 18.8201 58.1042 18.8287 58.1443C18.8373 58.2216 18.8516 58.2988 18.8745 58.3733C18.8974 58.4391 18.926 58.5078 18.9604 58.5679C18.9919 58.6309 19.0319 58.691 19.0749 58.7454C19.1264 58.8055 19.1808 58.8599 19.2438 58.9086C19.2695 58.9372 19.2982 58.9659 19.3297 58.9916L26.864 63.8181C27.3965 64.1616 28.1093 64.0041 28.45 63.4688C28.7907 62.9364 28.6361 62.2236 28.1008 61.8829L23.8582 59.1662H60.4206C62.6564 59.1662 64.7232 57.9753 65.8397 56.0373C66.9589 54.0993 66.9589 51.7147 65.8397 49.7766L65.8399 49.7795ZM61.709 47.7671V47.7642C61.3312 47.5466 61.0535 47.1888 60.9418 46.7651C60.8273 46.3443 60.8874 45.8948 61.105 45.5141C61.3998 45.0046 61.9466 44.6897 62.5363 44.6897C62.8254 44.6897 63.1089 44.767 63.3579 44.913C63.9333 45.245 64.254 45.8948 64.1652 46.5533C64.0793 47.2146 63.6041 47.7585 62.96 47.9302C62.5364 48.0448 62.0869 47.9875 61.7091 47.7642L61.709 47.7671Z" fill="#333333"/>
</svg>
