<svg width="75" height="64" viewBox="0 0 75 64" fill="none" xmlns="http://www.w3.org/2000/svg">
<mask id="path-1-inside-1" fill="white">
<path d="M65.3436 43.3827C64.8664 43.3427 64.3379 43.3256 63.7635 43.3256C62.575 43.3256 61.1693 43.4056 59.555 43.5599C62.9179 39.0199 64.9064 33.4026 64.9064 27.3201C64.9064 12.2316 52.6748 0 37.5863 0C22.4978 0 10.2662 12.2316 10.2662 27.3201C10.2662 31.9858 11.4376 36.3802 13.5005 40.2231C3.13767 40.766 0.928772 47.3917 0.928772 47.3917V54.8544C0.934486 59.1344 14.12 61.2315 14.169 61.2372C24.643 63.3057 37.5175 64 37.5175 64C37.5175 64 72.8057 50.1373 73.7287 49.3284C74.6573 48.517 74.2487 44.097 65.343 43.3827L65.3436 43.3827ZM61.1979 21.6661C61.6379 23.5032 61.8607 25.3946 61.8607 27.3203C61.8607 30.5975 61.2179 33.7774 59.955 36.7659C58.8036 39.4888 57.1836 41.9516 55.1321 44.0919C54.3407 44.2004 53.515 44.3233 52.6522 44.4547C53.3007 43.7633 53.9293 43.0205 54.4179 42.129C55.1721 40.7519 55.4379 39.3347 55.6979 37.9662C55.9293 36.7291 56.1522 35.5605 56.7236 34.5719C56.8036 34.4319 56.9007 34.2691 57.0036 34.0891C60.2007 28.6091 60.9092 26.6491 60.1635 25.3493C59.8007 24.715 59.1064 24.3607 58.3378 24.4208C58.0493 24.4436 57.7664 24.4522 57.495 24.4522C55.4322 24.4522 54.3036 23.8465 53.7436 23.3322C54.1522 23.4151 54.6236 23.5408 55.0836 23.6637C56.0807 23.9294 57.1121 24.2065 58.0493 24.2065C59.6521 24.2065 60.7492 23.3465 61.015 21.8951C61.0578 21.8265 61.1207 21.7494 61.1978 21.6665L61.1979 21.6661ZM47.2862 5.0635C50.0747 6.28066 52.5862 7.99205 54.7489 10.1577C56.9775 12.3863 58.7289 14.9834 59.9517 17.872C60.0432 18.0892 60.1289 18.3092 60.2146 18.5263C59.1518 19.2206 58.2403 20.2606 58.0431 21.1549C57.506 21.1549 56.6746 20.932 55.866 20.7149C54.8974 20.4549 53.8946 20.1863 53.0031 20.1863C51.7117 20.1863 51.0232 20.7578 50.6717 21.2378C50.0946 22.0234 50.0717 23.1291 50.6089 24.192C51.386 25.7263 53.4774 27.3634 57.0488 27.4892C56.8917 27.8749 56.6545 28.3892 56.3088 29.0662C55.6603 30.332 54.8832 31.6662 54.366 32.5519C54.2575 32.7376 54.1632 32.9033 54.0803 33.0462C53.2489 34.4862 52.9689 35.969 52.6975 37.4033C52.4746 38.5918 52.2632 39.7147 51.7432 40.6661C51.2889 41.4946 50.5718 42.2318 49.809 43.0089C49.4118 43.4175 48.9975 43.8403 48.609 44.2889C48.2976 44.6517 48.0033 44.9746 47.7175 45.2603C47.2118 45.3489 46.6919 45.4374 46.1661 45.5317C45.7747 44.4175 44.5633 43.5489 43.2319 42.9031C43.149 42.2117 43.0947 41.5003 43.0376 40.7717C42.9119 39.146 42.7862 37.4632 42.3147 35.766C41.789 33.8574 40.6776 32.5746 39.0091 31.9488C37.6519 31.4403 36.112 31.4403 34.7548 31.4403H34.6091C34.372 31.4403 34.1348 31.4403 33.8977 31.4374C31.1777 31.406 29.5549 29.7917 29.452 27.0117C29.3549 24.4318 29.9892 22.4146 31.3348 21.0175C32.9005 19.3946 35.0034 19.0289 35.6177 19.0289H35.6234L35.8491 19.0689C39.4148 19.706 40.5291 20.0289 40.8319 20.1889C41.7748 20.7088 42.7805 20.9717 43.8262 20.9717C45.5634 20.9717 47.3291 20.186 48.3233 18.9717C48.9176 18.246 49.1633 17.4317 49.0119 16.6803C48.7919 15.5917 47.8062 14.6831 43.5634 13.5203C41.2491 12.886 38.5805 12.3689 37.0777 12.2603C37.0005 12.2546 36.9234 12.2517 36.8434 12.2517C36.3977 12.2517 35.9206 12.3374 35.4577 12.4203C35.2292 12.4603 34.992 12.5032 34.7777 12.5317C34.8034 12.4889 34.8349 12.446 34.8692 12.4032C36.7834 9.88033 39.7205 8.71459 42.8351 7.48317C44.0351 7.00888 45.2722 6.51747 46.4636 5.93745C46.8436 5.76031 47.0836 5.48889 47.2865 5.06318L47.2862 5.0635ZM15.2206 17.8722C16.4435 14.9836 18.1949 12.3865 20.4235 10.1579C22.652 7.92644 25.2492 6.1779 28.1407 4.95503C31.1321 3.68931 34.3092 3.04931 37.5892 3.04931C39.6864 3.04931 41.7463 3.31217 43.7406 3.83501C43.0835 4.115 42.4121 4.38071 41.715 4.65786C38.3521 5.98927 34.8721 7.36924 32.4434 10.5692C31.2949 12.0863 31.1834 13.692 32.1549 14.7663C32.672 15.3349 33.4091 15.6235 34.3463 15.6235C34.9148 15.6235 35.4948 15.5206 36.0005 15.4292C36.3148 15.3721 36.6691 15.3092 36.8462 15.3092H36.8605C38.0176 15.3921 40.1948 15.8035 42.1548 16.3064C43.8433 16.7406 44.929 17.1235 45.5662 17.4006C45.1719 17.6692 44.5633 17.9292 43.8262 17.9292C43.3034 17.9292 42.7919 17.7921 42.3091 17.5264C41.4263 17.0378 39.3862 16.6064 36.3891 16.0721L36.1148 16.0235C35.9691 15.9978 35.8091 15.9864 35.6234 15.9864C34.3548 15.9864 31.372 16.5978 29.1463 18.9092C27.2035 20.9263 26.2834 23.6949 26.412 27.1319C26.5777 31.5518 29.5034 34.4432 33.8659 34.4914C34.1173 34.4943 34.3659 34.4943 34.6145 34.4943H34.7602C37.6944 34.4943 38.8573 34.6743 39.3858 36.5857C39.7744 37.9971 39.8887 39.46 40.0058 41.0114C40.023 41.2571 40.043 41.5028 40.063 41.7485C39.3373 41.5485 38.8487 41.4543 38.8487 41.4543C38.8487 41.4543 29.6657 40.9543 21.5542 40.5142C22.2942 37.7857 20.7228 34.7971 19.2199 32.6083C18.3142 31.2854 17.2771 30.0111 16.3456 28.714C15.8828 28.0712 14.7085 26.214 13.4771 24.4912C13.7399 22.2113 14.3228 19.9942 15.2199 17.8713L15.2206 17.8722ZM13.872 30.4921C14.2949 31.0836 14.7377 31.6636 15.1634 32.2264C15.7149 32.9521 16.2348 33.6407 16.7091 34.3293C18.7291 37.2664 18.8548 38.9007 18.6034 39.755C18.5462 39.9435 18.452 40.135 18.3234 40.3321C17.8891 40.3064 17.4605 40.2835 17.0463 40.2607C16.3463 39.1521 15.732 37.9864 15.2148 36.7664C14.2806 34.5608 13.6892 32.2522 13.4434 29.875C13.612 30.1236 13.7548 30.3293 13.872 30.4922L13.872 30.4921ZM37.0289 60.9179C34.3032 60.7464 23.5744 59.9893 14.7578 58.2494L14.7006 58.2379L14.6435 58.2293C14.6178 58.2236 12.0664 57.8151 9.33212 57.015C5.4607 55.8836 4.26929 54.8865 3.97504 54.5722V48.0408C4.20361 47.6266 4.70075 46.8551 5.58358 46.0752C6.48645 45.2809 7.58929 44.6409 8.86643 44.1751C10.575 43.5523 12.5921 43.2351 14.8664 43.2351C15.3349 43.2351 15.8206 43.2494 16.3121 43.2751C24.346 43.7151 36.5776 44.3808 38.4406 44.4808C38.8348 44.5694 39.7949 44.8065 40.8234 45.1893C41.7777 45.5465 42.4034 45.8893 42.7948 46.1522C39.6234 46.9064 30.0717 49.035 23.2892 49.1122C22.4606 49.1208 21.7864 49.7979 21.7864 50.635C21.7864 51.4778 22.4692 52.1607 23.312 52.1607C31.0373 52.075 41.7549 49.575 44.1546 48.9865L46.7032 48.5379C55.1892 47.0436 60.4518 46.3751 63.7629 46.3751C64.2572 46.3751 64.7058 46.3894 65.0972 46.4236C67.8057 46.6408 69.3057 47.215 70.0886 47.6636C64.2715 50.1379 47.9542 56.6236 37.029 60.9177L37.0289 60.9179Z"/>
</mask>
<path d="M65.3436 43.3827C64.8664 43.3427 64.3379 43.3256 63.7635 43.3256C62.575 43.3256 61.1693 43.4056 59.555 43.5599C62.9179 39.0199 64.9064 33.4026 64.9064 27.3201C64.9064 12.2316 52.6748 0 37.5863 0C22.4978 0 10.2662 12.2316 10.2662 27.3201C10.2662 31.9858 11.4376 36.3802 13.5005 40.2231C3.13767 40.766 0.928772 47.3917 0.928772 47.3917V54.8544C0.934486 59.1344 14.12 61.2315 14.169 61.2372C24.643 63.3057 37.5175 64 37.5175 64C37.5175 64 72.8057 50.1373 73.7287 49.3284C74.6573 48.517 74.2487 44.097 65.343 43.3827L65.3436 43.3827ZM61.1979 21.6661C61.6379 23.5032 61.8607 25.3946 61.8607 27.3203C61.8607 30.5975 61.2179 33.7774 59.955 36.7659C58.8036 39.4888 57.1836 41.9516 55.1321 44.0919C54.3407 44.2004 53.515 44.3233 52.6522 44.4547C53.3007 43.7633 53.9293 43.0205 54.4179 42.129C55.1721 40.7519 55.4379 39.3347 55.6979 37.9662C55.9293 36.7291 56.1522 35.5605 56.7236 34.5719C56.8036 34.4319 56.9007 34.2691 57.0036 34.0891C60.2007 28.6091 60.9092 26.6491 60.1635 25.3493C59.8007 24.715 59.1064 24.3607 58.3378 24.4208C58.0493 24.4436 57.7664 24.4522 57.495 24.4522C55.4322 24.4522 54.3036 23.8465 53.7436 23.3322C54.1522 23.4151 54.6236 23.5408 55.0836 23.6637C56.0807 23.9294 57.1121 24.2065 58.0493 24.2065C59.6521 24.2065 60.7492 23.3465 61.015 21.8951C61.0578 21.8265 61.1207 21.7494 61.1978 21.6665L61.1979 21.6661ZM47.2862 5.0635C50.0747 6.28066 52.5862 7.99205 54.7489 10.1577C56.9775 12.3863 58.7289 14.9834 59.9517 17.872C60.0432 18.0892 60.1289 18.3092 60.2146 18.5263C59.1518 19.2206 58.2403 20.2606 58.0431 21.1549C57.506 21.1549 56.6746 20.932 55.866 20.7149C54.8974 20.4549 53.8946 20.1863 53.0031 20.1863C51.7117 20.1863 51.0232 20.7578 50.6717 21.2378C50.0946 22.0234 50.0717 23.1291 50.6089 24.192C51.386 25.7263 53.4774 27.3634 57.0488 27.4892C56.8917 27.8749 56.6545 28.3892 56.3088 29.0662C55.6603 30.332 54.8832 31.6662 54.366 32.5519C54.2575 32.7376 54.1632 32.9033 54.0803 33.0462C53.2489 34.4862 52.9689 35.969 52.6975 37.4033C52.4746 38.5918 52.2632 39.7147 51.7432 40.6661C51.2889 41.4946 50.5718 42.2318 49.809 43.0089C49.4118 43.4175 48.9975 43.8403 48.609 44.2889C48.2976 44.6517 48.0033 44.9746 47.7175 45.2603C47.2118 45.3489 46.6919 45.4374 46.1661 45.5317C45.7747 44.4175 44.5633 43.5489 43.2319 42.9031C43.149 42.2117 43.0947 41.5003 43.0376 40.7717C42.9119 39.146 42.7862 37.4632 42.3147 35.766C41.789 33.8574 40.6776 32.5746 39.0091 31.9488C37.6519 31.4403 36.112 31.4403 34.7548 31.4403H34.6091C34.372 31.4403 34.1348 31.4403 33.8977 31.4374C31.1777 31.406 29.5549 29.7917 29.452 27.0117C29.3549 24.4318 29.9892 22.4146 31.3348 21.0175C32.9005 19.3946 35.0034 19.0289 35.6177 19.0289H35.6234L35.8491 19.0689C39.4148 19.706 40.5291 20.0289 40.8319 20.1889C41.7748 20.7088 42.7805 20.9717 43.8262 20.9717C45.5634 20.9717 47.3291 20.186 48.3233 18.9717C48.9176 18.246 49.1633 17.4317 49.0119 16.6803C48.7919 15.5917 47.8062 14.6831 43.5634 13.5203C41.2491 12.886 38.5805 12.3689 37.0777 12.2603C37.0005 12.2546 36.9234 12.2517 36.8434 12.2517C36.3977 12.2517 35.9206 12.3374 35.4577 12.4203C35.2292 12.4603 34.992 12.5032 34.7777 12.5317C34.8034 12.4889 34.8349 12.446 34.8692 12.4032C36.7834 9.88033 39.7205 8.71459 42.8351 7.48317C44.0351 7.00888 45.2722 6.51747 46.4636 5.93745C46.8436 5.76031 47.0836 5.48889 47.2865 5.06318L47.2862 5.0635ZM15.2206 17.8722C16.4435 14.9836 18.1949 12.3865 20.4235 10.1579C22.652 7.92644 25.2492 6.1779 28.1407 4.95503C31.1321 3.68931 34.3092 3.04931 37.5892 3.04931C39.6864 3.04931 41.7463 3.31217 43.7406 3.83501C43.0835 4.115 42.4121 4.38071 41.715 4.65786C38.3521 5.98927 34.8721 7.36924 32.4434 10.5692C31.2949 12.0863 31.1834 13.692 32.1549 14.7663C32.672 15.3349 33.4091 15.6235 34.3463 15.6235C34.9148 15.6235 35.4948 15.5206 36.0005 15.4292C36.3148 15.3721 36.6691 15.3092 36.8462 15.3092H36.8605C38.0176 15.3921 40.1948 15.8035 42.1548 16.3064C43.8433 16.7406 44.929 17.1235 45.5662 17.4006C45.1719 17.6692 44.5633 17.9292 43.8262 17.9292C43.3034 17.9292 42.7919 17.7921 42.3091 17.5264C41.4263 17.0378 39.3862 16.6064 36.3891 16.0721L36.1148 16.0235C35.9691 15.9978 35.8091 15.9864 35.6234 15.9864C34.3548 15.9864 31.372 16.5978 29.1463 18.9092C27.2035 20.9263 26.2834 23.6949 26.412 27.1319C26.5777 31.5518 29.5034 34.4432 33.8659 34.4914C34.1173 34.4943 34.3659 34.4943 34.6145 34.4943H34.7602C37.6944 34.4943 38.8573 34.6743 39.3858 36.5857C39.7744 37.9971 39.8887 39.46 40.0058 41.0114C40.023 41.2571 40.043 41.5028 40.063 41.7485C39.3373 41.5485 38.8487 41.4543 38.8487 41.4543C38.8487 41.4543 29.6657 40.9543 21.5542 40.5142C22.2942 37.7857 20.7228 34.7971 19.2199 32.6083C18.3142 31.2854 17.2771 30.0111 16.3456 28.714C15.8828 28.0712 14.7085 26.214 13.4771 24.4912C13.7399 22.2113 14.3228 19.9942 15.2199 17.8713L15.2206 17.8722ZM13.872 30.4921C14.2949 31.0836 14.7377 31.6636 15.1634 32.2264C15.7149 32.9521 16.2348 33.6407 16.7091 34.3293C18.7291 37.2664 18.8548 38.9007 18.6034 39.755C18.5462 39.9435 18.452 40.135 18.3234 40.3321C17.8891 40.3064 17.4605 40.2835 17.0463 40.2607C16.3463 39.1521 15.732 37.9864 15.2148 36.7664C14.2806 34.5608 13.6892 32.2522 13.4434 29.875C13.612 30.1236 13.7548 30.3293 13.872 30.4922L13.872 30.4921ZM37.0289 60.9179C34.3032 60.7464 23.5744 59.9893 14.7578 58.2494L14.7006 58.2379L14.6435 58.2293C14.6178 58.2236 12.0664 57.8151 9.33212 57.015C5.4607 55.8836 4.26929 54.8865 3.97504 54.5722V48.0408C4.20361 47.6266 4.70075 46.8551 5.58358 46.0752C6.48645 45.2809 7.58929 44.6409 8.86643 44.1751C10.575 43.5523 12.5921 43.2351 14.8664 43.2351C15.3349 43.2351 15.8206 43.2494 16.3121 43.2751C24.346 43.7151 36.5776 44.3808 38.4406 44.4808C38.8348 44.5694 39.7949 44.8065 40.8234 45.1893C41.7777 45.5465 42.4034 45.8893 42.7948 46.1522C39.6234 46.9064 30.0717 49.035 23.2892 49.1122C22.4606 49.1208 21.7864 49.7979 21.7864 50.635C21.7864 51.4778 22.4692 52.1607 23.312 52.1607C31.0373 52.075 41.7549 49.575 44.1546 48.9865L46.7032 48.5379C55.1892 47.0436 60.4518 46.3751 63.7629 46.3751C64.2572 46.3751 64.7058 46.3894 65.0972 46.4236C67.8057 46.6408 69.3057 47.215 70.0886 47.6636C64.2715 50.1379 47.9542 56.6236 37.029 60.9177L37.0289 60.9179Z" fill="#333333" stroke="white" stroke-width="0.5" mask="url(#path-1-inside-1)"/>
</svg>
