<svg width="60" height="63" viewBox="0 0 60 63" fill="none" xmlns="http://www.w3.org/2000/svg">
<path d="M30.0301 50.401C28.2596 50.401 26.56 50.401 24.7895 50.401C23.8689 50.401 23.5856 50.1165 23.3732 49.1922C23.0191 47.0592 22.665 44.9262 22.2401 42.7932C21.9568 41.4422 21.2486 40.3046 20.2572 39.3803C17.991 37.3895 16.5746 34.8299 16.0081 31.9147C14.7334 25.3023 18.5575 18.6899 25.0728 16.3436C31.6589 13.9262 39.1656 16.6991 42.494 22.7427C45.4684 28.0753 44.5478 34.8299 40.1571 38.9537C38.6699 40.3757 37.7492 41.9399 37.466 44.0019C37.2535 45.7794 36.8994 47.5569 36.5453 49.3344C36.4037 50.1166 36.1204 50.401 35.2706 50.401C33.5002 50.401 31.7297 50.401 30.0301 50.401ZM29.9593 48.9078C31.3048 48.9078 32.5795 48.9078 33.9251 48.9078C35.1998 48.9078 35.1998 48.9078 35.4122 47.6991C35.6955 45.9927 35.9788 44.2152 36.3329 42.5088C36.687 40.8023 37.5368 39.4514 38.8115 38.3138C43.1314 34.3321 44.052 28.2175 41.2193 23.3115C37.1119 16.2014 26.9849 14.8505 21.107 20.6097C17.9202 23.7381 16.7163 27.5776 17.5661 31.9858C18.0618 34.5454 19.4074 36.6785 21.3194 38.456C22.5942 39.5936 23.444 40.9445 23.7273 42.651C24.0814 44.5707 24.4354 46.5615 24.7187 48.4812C24.7895 48.9078 24.9312 49.05 25.3561 49.05C26.9141 48.9078 28.4721 48.9078 29.9593 48.9078Z" fill="#333333"/>
<path d="M29.9592 58.2932C31.1631 58.2932 32.367 58.2932 33.5001 58.2932C34.0666 58.2932 34.1374 58.3643 34.0666 59.0042C33.8542 60.5684 32.7211 61.7771 31.0923 61.9904C30.2424 62.0615 29.3926 62.0615 28.5428 61.9904C27.0556 61.7771 25.8517 60.4262 25.7101 58.9331C25.6393 58.5065 25.7809 58.3643 26.2766 58.3643C27.5514 58.2932 28.7553 58.2932 29.9592 58.2932Z" fill="#333333"/>
<path d="M29.9593 52.8183C28.118 52.8183 26.2059 52.8183 24.3647 52.8183C24.223 52.8183 24.0814 52.8183 23.9397 52.8183C23.5148 52.7472 23.2316 52.4628 23.2316 51.9651C23.2316 51.4674 23.444 51.183 23.9397 51.1119C24.0814 51.0408 24.2938 51.1119 24.5063 51.1119C28.2597 51.1119 32.013 51.1119 35.6956 51.1119C35.7664 51.1119 35.908 51.1119 35.9788 51.1119C36.6162 51.1119 36.9703 51.4674 36.9703 52.0362C36.9703 52.5339 36.6162 52.8894 35.9788 52.8894C34.7041 52.8894 33.5002 52.8894 32.2255 52.8894C31.3756 52.8183 30.6675 52.8183 29.9593 52.8183Z" fill="#333333"/>
<path d="M29.9592 55.2358C28.0471 55.2358 26.0642 55.2358 24.1521 55.2358C23.6564 55.2358 23.3023 55.0936 23.1606 54.5959C23.019 54.0271 23.3731 53.5294 24.0105 53.5294C24.5062 53.5294 24.9311 53.5294 25.4268 53.5294C28.8969 53.5294 32.2962 53.5294 35.7663 53.5294C36.262 53.5294 36.6161 53.6716 36.8285 54.1693C37.041 54.7381 36.6161 55.2358 35.9079 55.2358C34.0666 55.2358 32.2254 55.2358 30.3841 55.2358C30.2424 55.2358 30.1008 55.2358 29.9592 55.2358Z" fill="#333333"/>
<path d="M29.9592 57.6532C28.1179 57.6532 26.2767 57.6532 24.4354 57.6532C24.2229 57.6532 24.0105 57.6532 23.798 57.6532C23.3731 57.5821 23.0898 57.2977 23.0898 56.8711C23.0898 56.3734 23.3731 56.089 23.798 56.0179C23.8688 56.0179 24.0105 56.0179 24.1521 56.0179C28.0471 56.0179 31.8713 56.0179 35.7663 56.0179C35.8371 56.0179 35.9787 56.0179 36.0496 56.0179C36.5453 56.089 36.8285 56.3734 36.8285 56.8711C36.8285 57.2977 36.5453 57.6532 36.0496 57.7243C35.5538 57.7243 35.1289 57.7243 34.6332 57.7243C33.0752 57.6532 31.5172 57.6532 29.9592 57.6532Z" fill="#333333"/>
<path d="M7.01416 29.7816C5.38535 29.7816 3.68572 29.7816 2.0569 29.7816C1.84445 29.7816 1.63199 29.7816 1.49036 29.7105C1.2779 29.4972 0.994629 29.2128 0.994629 28.9995C0.994629 28.7151 1.2779 28.4307 1.49036 28.2885C1.63199 28.1463 1.84445 28.2174 2.0569 28.2174C5.31453 28.2174 8.64298 28.2174 11.9006 28.2174C11.9714 28.2174 12.1131 28.2174 12.1839 28.2174C12.7504 28.2885 13.1045 28.5729 13.0337 29.0706C13.0337 29.4972 12.6796 29.8527 12.1131 29.8527C10.6967 29.8527 9.35116 29.8527 7.9348 29.8527C7.65153 29.7816 7.29744 29.7816 7.01416 29.7816Z" fill="#333333"/>
<path d="M52.9751 29.7816C51.2755 29.7816 49.505 29.7816 47.8054 29.7816C47.2389 29.7816 46.9556 29.4972 46.8848 28.9995C46.8848 28.5018 47.168 28.2174 47.7346 28.1463C47.8762 28.1463 48.0179 28.1463 48.0887 28.1463C49.2218 28.1463 50.4257 28.1463 51.5588 28.1463C53.6125 28.1463 55.6662 28.1463 57.7907 28.1463C58.0032 28.1463 58.1448 28.1463 58.3573 28.1463C58.7822 28.2174 59.0655 28.5018 58.9947 28.9284C58.9947 29.355 58.7114 29.6394 58.2865 29.7105C58.0032 29.7105 57.7907 29.7105 57.5075 29.7105C56.0203 29.7816 54.5331 29.7816 52.9751 29.7816Z" fill="#333333"/>
<path d="M16.0788 3.75873C16.1496 3.82983 16.4329 3.97203 16.5745 4.18533C18.345 7.17157 20.0446 10.2289 21.7442 13.2152C22.0275 13.7129 21.8859 14.1395 21.5318 14.3528C21.1069 14.5661 20.6819 14.4239 20.3987 13.9973C18.699 11.011 16.9994 8.02478 15.229 5.03854C14.8749 4.39864 15.229 3.75873 16.0788 3.75873Z" fill="#333333"/>
<path d="M39.0239 14.4949C38.1741 14.4949 37.8908 13.855 38.1741 13.2151C38.7406 12.2197 39.3072 11.2243 39.8737 10.2289C41.0068 8.30916 42.0691 6.31834 43.2022 4.39861C43.273 4.32751 43.3438 4.18531 43.3438 4.11421C43.6271 3.6876 44.052 3.5454 44.4769 3.7587C44.831 3.97201 44.9726 4.46971 44.6894 4.89632C44.1228 5.89173 43.5563 6.88714 42.9897 7.88256C41.8566 9.87338 40.7235 11.8642 39.5905 13.7839C39.4488 14.2105 39.1656 14.3527 39.0239 14.4949Z" fill="#333333"/>
<path d="M45.256 36.9629C45.61 37.1051 45.7517 37.1762 45.9641 37.2473C48.8677 38.9537 51.842 40.6601 54.7456 42.3666C55.2413 42.651 55.4538 43.1487 55.1705 43.5753C54.8872 44.0019 54.4623 44.073 53.9666 43.7886C50.9922 42.0822 48.0179 40.3757 45.0435 38.6693C44.6894 38.456 44.4061 38.1005 44.6186 37.745C44.7602 37.3895 45.1143 37.1762 45.256 36.9629Z" fill="#333333"/>
<path d="M5.38536 44.0018C5.17291 43.7885 4.88964 43.6463 4.748 43.3619C4.60636 43.0064 4.748 42.6509 5.10209 42.4376C5.73945 42.0821 6.37682 41.6555 7.085 41.3C9.42199 39.9491 11.6882 38.5982 14.0252 37.3183C14.3084 37.1761 14.6625 37.105 14.9458 37.1761C15.1583 37.2472 15.4415 37.6028 15.3707 37.8161C15.3707 38.1005 15.1583 38.456 14.875 38.5982C13.6003 39.3803 12.3255 40.0913 11.0508 40.8734C9.35118 41.8688 7.72236 42.7931 6.02273 43.7885C5.88109 43.7885 5.66864 43.8596 5.38536 44.0018Z" fill="#333333"/>
<path d="M5.4562 13.9973C5.73947 14.1395 5.95193 14.2106 6.09356 14.2817C8.9971 15.9881 11.9715 17.6945 14.875 19.4009C15.4415 19.6853 15.5832 20.183 15.2999 20.6096C15.0875 21.0362 14.5917 21.1073 14.0252 20.8229C11.0508 19.1165 8.14729 17.4101 5.17293 15.7037C4.74802 15.4904 4.53557 15.1349 4.74802 14.7083C4.96047 14.3528 5.24375 14.2106 5.4562 13.9973Z" fill="#333333"/>
<path d="M45.2559 21.0363C45.0435 20.823 44.6894 20.6808 44.6186 20.3964C44.5477 20.112 44.6894 19.7564 44.831 19.5431C44.9727 19.3298 45.3267 19.1876 45.61 19.0454C48.3011 17.4812 50.9922 15.917 53.6125 14.3528C54.3206 13.9262 54.8164 13.9973 55.0288 14.4239C55.3121 14.9216 55.0996 15.3482 54.3915 15.7748C51.5587 17.4101 48.726 19.0454 45.8933 20.6808C45.7517 20.7519 45.5392 20.8941 45.2559 21.0363Z" fill="#333333"/>
<path d="M29.1803 6.10505C29.1803 4.39863 29.1803 2.62111 29.1803 0.914688C29.1803 0.203679 29.676 -0.151825 30.2426 0.0614773C30.5967 0.203679 30.7383 0.488083 30.7383 0.843587C30.7383 4.32753 30.7383 7.81148 30.7383 11.2954C30.7383 11.8642 30.455 12.1486 29.9593 12.1486C29.4636 12.1486 29.1803 11.8642 29.1803 11.2954C29.1803 9.589 29.1803 7.81148 29.1803 6.10505Z" fill="#333333"/>
<path d="M29.9593 48.9078C28.4013 48.9078 26.9141 48.9078 25.3561 48.9078C24.9312 48.9078 24.7895 48.7656 24.7187 48.339C24.4354 46.3482 24.0814 44.4284 23.7273 42.5087C23.3732 40.8734 22.5942 39.4514 21.3194 38.3138C19.4074 36.5362 18.0618 34.4032 17.5661 31.8436C16.7163 27.4353 17.8494 23.5959 21.107 20.4674C26.9849 14.7083 37.1119 16.1303 41.2193 23.1693C44.1229 28.0752 43.1314 34.1899 38.8115 38.1716C37.5368 39.3092 36.687 40.6601 36.3329 42.3665C35.9788 44.0729 35.6955 45.8505 35.4122 47.5569C35.1998 48.7656 35.1998 48.7656 33.9251 48.7656C32.5795 48.9078 31.3048 48.9078 29.9593 48.9078ZM26.4184 34.9009C27.1973 35.3275 27.1973 35.3275 27.1265 36.1096C27.1265 37.6027 27.339 37.8871 28.897 38.1005C29.7468 38.1716 30.0301 38.1005 30.3133 37.3183C30.455 37.0339 30.5258 36.7495 30.5966 36.4651C30.6674 36.1807 30.8091 35.9674 31.1632 35.8963C31.5172 35.8252 31.8005 35.8963 31.9422 36.2518C32.0838 36.5362 32.3671 36.7495 32.5795 36.9628C33.0752 37.5316 33.4293 37.5316 34.0667 37.2472C35.5539 36.5362 35.6955 36.1096 35.0582 34.6165C34.9873 34.3321 34.7041 34.1188 34.9873 33.8344C35.2706 33.55 35.4831 33.3367 35.9788 33.4789C36.3329 33.6211 36.687 33.55 37.0411 33.6211C37.6076 33.6922 37.8909 33.4078 38.1033 32.9812C38.1741 32.7679 38.3158 32.5546 38.3866 32.3413C38.7407 31.417 38.6699 31.1326 37.8201 30.6349C37.6076 30.4927 37.3951 30.3505 37.1827 30.2794C36.8286 30.1372 36.687 29.9238 36.687 29.4972C36.687 29.0706 36.8994 28.9995 37.1827 28.8573C38.7407 28.0041 38.8823 27.7197 38.1741 26.2266C37.8909 25.5156 37.5368 25.3023 36.7578 25.4445C36.4745 25.5156 36.1204 25.5156 35.8372 25.5867C35.4122 25.7289 35.2706 25.5156 35.0582 25.2312C34.7749 24.9468 34.9165 24.7335 35.0582 24.5202C35.1998 24.1647 35.3414 23.7381 35.4122 23.3826C35.5539 22.8138 35.3414 22.4583 34.9165 22.245C34.2792 21.8894 33.7126 21.2495 32.9336 21.7472C32.8628 21.8183 32.792 21.8894 32.7212 21.9605C32.4379 22.245 32.1546 22.6005 31.8713 22.8849C31.7297 23.0271 31.5173 23.0982 31.3756 23.0982C30.9507 23.1693 30.7383 22.956 30.6674 22.5294C30.5966 22.1739 30.455 21.8894 30.3133 21.5339C30.1009 21.0362 29.7468 20.8229 29.2511 20.894C27.1973 20.894 27.1973 20.9651 27.1973 22.956V23.0271C27.2682 23.3115 27.2682 23.5248 26.9141 23.667C26.6308 23.8092 26.4184 24.0225 26.0643 23.7381C25.7102 23.4537 25.2853 23.3115 24.9312 23.0982C24.4354 22.8849 24.0105 23.0982 23.7273 23.4537C23.3024 23.9514 22.5942 24.378 22.8774 25.2312C22.9483 25.3734 23.0899 25.5156 23.1607 25.6578C23.444 26.0133 23.7981 26.3688 24.0105 26.6532C24.0105 27.4353 23.5856 27.6486 22.9483 27.6486C22.665 27.6486 22.3109 27.7197 22.0276 27.8619C21.7444 28.0041 21.5319 28.2174 21.3903 28.5018C20.8945 29.9949 21.3903 30.8482 22.8774 31.0615C23.5148 31.1326 23.9397 31.3459 23.9397 32.0569C23.5856 32.4835 23.2315 32.9101 22.9483 33.3367C22.5942 33.7633 22.665 34.1899 23.0191 34.6165C23.5148 35.1142 23.7981 35.9674 24.7187 35.8252C24.8604 35.8252 24.9312 35.7541 25.0728 35.683C25.4977 35.3986 25.9934 35.1142 26.4184 34.9009Z" fill="white"/>
<path d="M26.4183 34.9009C25.9934 35.1853 25.4976 35.3986 25.0727 35.6119C24.9311 35.683 24.8603 35.7541 24.7186 35.7541C23.798 35.8963 23.5147 35.1142 23.019 34.5454C22.6649 34.1899 22.6649 33.6922 22.9482 33.2656C23.3023 32.839 23.6564 32.4124 23.9396 31.9858C23.8688 31.2748 23.5147 31.0615 22.8774 30.9904C21.3194 30.7771 20.8236 29.9239 21.3902 28.4307C21.461 28.1463 21.7443 27.933 22.0276 27.7908C22.3108 27.6486 22.5941 27.5775 22.9482 27.5775C23.5856 27.5775 24.0105 27.3642 24.0105 26.5821C23.7272 26.2977 23.4439 25.9422 23.1606 25.5867C23.019 25.4445 22.9482 25.3023 22.8774 25.1601C22.5941 24.3069 23.3023 23.8803 23.7272 23.3826C24.0105 23.0271 24.4354 22.8138 24.9311 23.0271C25.356 23.2404 25.7809 23.3826 26.0642 23.667C26.4183 23.9514 26.6307 23.7381 26.914 23.5959C27.1973 23.4537 27.2681 23.2404 27.1973 22.956V22.8849C27.1973 20.9652 27.2681 20.894 29.251 20.6096C29.7467 20.5385 30.1716 20.7518 30.3133 21.2496C30.4549 21.6051 30.5965 21.8895 30.6674 22.245C30.7382 22.6716 31.0214 22.8849 31.3755 22.8138C31.588 22.8138 31.8004 22.7427 31.8713 22.6005C32.1545 22.3161 32.4378 21.9606 32.7211 21.6762C32.7919 21.6051 32.8627 21.534 32.9335 21.4629C33.7834 20.9652 34.2791 21.6051 34.9164 21.9606C35.3414 22.1739 35.6246 22.5294 35.4122 23.0982C35.2705 23.4537 35.1997 23.8803 35.0581 24.2358C34.9873 24.5202 34.8456 24.7335 35.0581 24.9468C35.2705 25.1601 35.483 25.4445 35.8371 25.3023C36.1203 25.1601 36.4744 25.1601 36.7577 25.1601C37.5367 25.0179 37.8908 25.2312 38.1741 25.9422C38.8114 27.5064 38.7406 27.7197 37.1826 28.5729C36.8993 28.7152 36.6869 28.7863 36.6869 29.2129C36.6869 29.6395 36.8285 29.8528 37.1826 29.995C37.3951 30.0661 37.6075 30.2083 37.82 30.3505C38.6698 30.9193 38.7406 31.1326 38.3865 32.0569C38.3157 32.2702 38.2449 32.4835 38.1033 32.6968C37.8908 33.1945 37.5367 33.4078 37.041 33.3367C36.6869 33.2656 36.262 33.3367 35.9787 33.1945C35.483 32.9812 35.2705 33.2656 34.9873 33.55C34.704 33.8344 34.9164 34.1188 35.0581 34.3321C35.6954 35.8963 35.5538 36.2518 34.0666 36.9629C33.3584 37.3184 33.0752 37.2473 32.5794 36.6785C32.367 36.4652 32.1545 36.2518 31.9421 35.9674C31.7296 35.6119 31.5172 35.5408 31.1631 35.6119C30.809 35.683 30.6674 35.8963 30.5965 36.1807C30.5257 36.4652 30.3841 36.7496 30.3133 37.034C29.9592 37.8161 29.7467 37.9583 28.8969 37.8161C27.3389 37.6028 27.1265 37.3895 27.1265 35.8252C27.1973 35.2564 27.1973 35.2564 26.4183 34.9009ZM30.1716 34.261C32.9335 34.261 35.1289 32.0569 35.0581 29.3551C35.0581 26.6532 32.7919 24.5202 30.1008 24.5202C27.4097 24.5202 25.2144 26.7243 25.2144 29.4262C25.2144 32.0569 27.4805 34.261 30.1716 34.261Z" fill="#333333"/>
<path d="M30.1717 34.261C27.4806 34.261 25.2853 32.0569 25.2853 29.3551C25.2853 26.7243 27.4806 24.5202 30.1717 24.4491C32.9336 24.4491 35.129 26.5821 35.129 29.284C35.0582 32.0569 32.8628 34.1899 30.1717 34.261Z" fill="white"/>
</svg>
