<svg width="28" height="24" viewBox="0 0 28 24" fill="none" xmlns="http://www.w3.org/2000/svg">
<path d="M8.83184 10.9718C8.5212 10.6526 8.09083 10.454 7.61599 10.454H2.59454L1.46823 11.0584M8.83184 10.9718C8.83185 10.9718 8.83187 10.9719 8.83189 10.9719L8.74231 11.059L8.83178 10.9718C8.8318 10.9718 8.83182 10.9718 8.83184 10.9718ZM8.83184 10.9718C9.14227 11.2901 9.33553 11.7298 9.33553 12.2139V21.9441C9.33553 22.428 9.143 22.8678 8.83168 23.1863M8.83168 23.1863C8.83172 23.1863 8.83175 23.1862 8.83178 23.1862L8.7423 23.0989M8.83168 23.1863C8.52119 23.5046 8.09093 23.704 7.61599 23.704H2.59454C2.12037 23.704 1.6893 23.5053 1.37864 23.1861C1.06752 22.867 0.875 22.4273 0.875 21.9441V12.2132C0.875 11.7292 1.06752 11.2894 1.37884 10.971L1.46823 11.0584M8.83168 23.1863L8.7423 23.0989M8.7423 23.0989C9.03148 22.8031 9.21053 22.3944 9.21053 21.9441V12.2139C9.21053 11.7636 9.0308 11.3549 8.7423 11.0591C8.4538 10.7626 8.05516 10.579 7.61599 10.579H2.59454C2.15537 10.579 1.75673 10.7626 1.46823 11.0584M8.7423 23.0989C8.4538 23.3947 8.05516 23.579 7.61599 23.579H2.59454C2.15604 23.579 1.75673 23.3954 1.46823 23.0989C1.17905 22.8024 1 22.3937 1 21.9441V12.2132C1 11.7629 1.17905 11.3542 1.46823 11.0584M2.59454 11.502H7.61531C7.80378 11.502 7.97617 11.581 8.10216 11.7102C8.22823 11.8395 8.3065 12.0177 8.3065 12.2132V21.9434C8.3065 22.1389 8.22823 22.3171 8.10216 22.4464C7.97613 22.5756 7.80372 22.6546 7.61599 22.6546H2.59454C2.4068 22.6546 2.2344 22.5756 2.10837 22.4464C1.98226 22.3171 1.90403 22.1395 1.90403 21.9434V12.2132C1.90403 12.0177 1.9823 11.8395 2.10837 11.7102C2.2344 11.581 2.4068 11.502 2.59454 11.502Z" fill="#C10230" stroke="#C10230" stroke-width="0.25"/>
<path d="M17.3998 9.76564L17.376 9.88835C17.4481 9.90233 17.519 9.90089 17.5858 9.88773C17.9422 9.84347 20.7132 9.51938 22.9801 9.82216C23.5483 9.89805 24.0807 10.0128 24.5334 10.1793C24.987 10.3462 25.3523 10.562 25.5953 10.8346C25.8351 11.1037 25.9606 11.4329 25.9299 11.844C25.9003 12.2399 25.7251 12.719 25.3511 13.2957L25.2917 13.3839C25.1549 13.587 25.183 13.8475 25.3409 14.0186C25.4201 14.1192 25.7256 14.5349 25.7985 15.0218C25.8349 15.2648 25.8127 15.521 25.679 15.7658C25.5478 16.0064 25.3023 16.2483 24.8708 16.4565H24.8698L24.8445 16.4684C24.5957 16.5854 24.4805 16.869 24.5768 17.12C24.6051 17.2028 24.7626 17.6914 24.7439 18.2278C24.7256 18.7517 24.5424 19.2968 23.9285 19.5765L23.9283 19.5764L23.8765 19.5979C23.6609 19.6874 23.5358 19.8997 23.5534 20.1184C23.5518 20.288 23.526 20.9938 23.2328 21.62C23.0852 21.9351 22.8732 22.223 22.5691 22.4152C22.2848 22.5948 21.9101 22.697 21.4112 22.6483L21.3154 22.6359C21.29 22.6327 21.2632 22.6307 21.2351 22.6315H11.3382L9.25473 21.52C9.25472 21.52 9.25471 21.52 9.25471 21.52C8.99932 21.3837 8.67624 21.4731 8.53351 21.7246C8.38928 21.9788 8.48714 22.2963 8.74428 22.4336L8.74431 22.4336L10.9233 23.5961C11.0046 23.6449 11.101 23.6736 11.2034 23.6736H21.2238C21.9457 23.761 22.5214 23.6542 22.9783 23.4232C23.4364 23.1916 23.7661 22.8399 24.0028 22.4536C24.45 21.7238 24.5717 20.8599 24.6047 20.4031C25.338 19.9874 25.6526 19.3477 25.7603 18.7253C25.8614 18.1405 25.7811 17.5675 25.6988 17.1964C26.1652 16.9162 26.4746 16.5984 26.6653 16.2637C26.867 15.9097 26.9318 15.5443 26.9167 15.1987C26.8887 14.5591 26.5873 13.9845 26.3738 13.6527C27.2183 12.2816 27.3068 11.2445 26.8592 10.4755C26.4115 9.70607 25.4531 9.25571 24.3479 8.99492C22.2242 8.49379 19.4269 8.66322 18.1324 8.78264C18.9454 4.14914 17.9081 2.14473 16.5315 1.34407C15.8435 0.943889 15.09 0.85796 14.4881 0.877591C13.8908 0.897071 13.4335 1.02077 13.3189 1.05446C13.0644 1.1172 12.8866 1.35697 12.9204 1.62409L12.9204 1.62422C13.3932 5.32473 12.3351 7.74574 11.166 9.24166C10.5803 9.99108 9.96497 10.5105 9.49579 10.8427C9.26126 11.0088 9.06346 11.1279 8.92449 11.2054C8.78581 11.2827 8.70563 11.3187 8.70537 11.3188L8.70511 11.3189L9.16128 12.2573C9.16124 12.2573 9.16123 12.2573 9.16123 12.2573C9.16126 12.2573 9.16864 12.254 9.17959 12.2488C9.19135 12.2432 9.20821 12.2351 9.2298 12.2244C9.27298 12.2029 9.33508 12.1709 9.41316 12.1276C9.56929 12.0412 9.78944 11.9098 10.0501 11.7282C10.5712 11.3649 11.2549 10.7998 11.9121 9.98936C13.2154 8.38211 14.4082 5.81682 14.0314 1.96686C14.6166 1.88302 15.6547 1.88215 16.4082 2.69675C17.2087 3.56222 17.7304 5.39284 16.9764 9.17516H16.976L16.9555 9.27507C16.8969 9.56134 17.0896 9.83332 17.3762 9.88839L17.3998 9.76564ZM17.3998 9.76564C17.1779 9.72301 17.034 9.51468 17.078 9.30016L25.466 13.3482C28.6158 8.45968 18.2336 9.68098 17.5657 9.76426C17.5125 9.77526 17.4565 9.77664 17.3998 9.76564Z" fill="#C10230" stroke="#C10230" stroke-width="0.25"/>
</svg>
