<svg width="48" height="51" viewBox="0 0 48 51" fill="none" xmlns="http://www.w3.org/2000/svg">
<path d="M18.1441 18.0297H32.7249C33.0751 18.0297 33.3617 18.3162 33.3617 18.6664C33.3617 18.7067 33.3617 18.7449 33.3532 18.7768L30.6068 49.6722L29.9786 49.617L30.6153 49.6722C30.5835 50.0054 30.3055 50.2537 29.9786 50.2537H6.31003C5.95984 50.2537 5.6733 49.9672 5.6733 49.617L2.92693 18.7129C2.89509 18.3627 3.15827 18.0528 3.50845 18.021H3.56363H18.1445L18.1441 18.0297ZM32.0311 19.3031H4.25767L6.89157 48.9891H29.3974L32.0311 19.3031Z" fill="#333333"/>
<path d="M26.5639 24.021C26.5873 23.6708 26.3178 23.3694 25.9675 23.3439C25.6173 23.3206 25.316 23.5901 25.2905 23.9404L24.017 44.2582C23.9937 44.6084 24.2632 44.9098 24.6134 44.9352C24.9636 44.9586 25.265 44.6891 25.2905 44.3388L26.5639 24.021Z" fill="#333333"/>
<path d="M10.9896 23.9423C10.9662 23.5921 10.6627 23.3289 10.3125 23.3459C9.96233 23.3692 9.69915 23.6727 9.71611 24.0229L10.9896 44.3408C11.0129 44.691 11.3164 44.9541 11.6666 44.9372C12.0168 44.9138 12.28 44.6103 12.263 44.2601L10.9896 23.9423Z" fill="#333333"/>
<path d="M18.6768 23.9829C18.6768 23.6327 18.3903 23.3462 18.0401 23.3462C17.6898 23.3462 17.4033 23.6327 17.4033 23.9829V44.3008C17.4033 44.651 17.6898 44.9375 18.0401 44.9375C18.3903 44.9375 18.6768 44.651 18.6768 44.3008V23.9829Z" fill="#333333"/>
<path d="M1.27351 18.0297H34.9622V14.6084H1.27351V18.0297ZM35.599 19.3031H0.636729C0.286536 19.3031 0 19.0166 0 18.6664V13.9717C0 13.6215 0.28652 13.335 0.636729 13.335H35.599C35.9492 13.335 36.2357 13.6215 36.2357 13.9717V18.6664C36.2357 19.0166 35.9492 19.3031 35.599 19.3031Z" fill="#333333"/>
<path d="M24.3926 14.6062H11.8428C11.4926 14.6062 11.2061 14.3196 11.2061 13.9694V10.1406C11.2061 9.79044 11.4926 9.50391 11.8428 9.50391H24.3926C24.7428 9.50391 25.0294 9.79043 25.0294 10.1406V13.9694C25.0294 14.3196 24.7428 14.6062 24.3926 14.6062ZM12.4796 13.3327H23.7559V10.7774H12.4796V13.3327Z" fill="#333333"/>
<circle cx="37.6768" cy="10.3233" r="9.82329" fill="white" stroke="#333333"/>
<path d="M37.6771 4.11353C37.2478 4.11353 36.9014 4.46134 36.9014 4.88918V5.60955C35.6339 5.99521 34.8524 7.02409 34.8524 7.9671C34.7622 8.849 35.1275 9.71344 35.81 10.2839C36.7385 11.0843 37.7935 10.9359 38.5488 11.5544C38.8355 11.7931 38.9942 12.1874 38.9592 12.5236C38.9243 12.8584 38.6856 13.2294 38.3466 13.4201C38.0075 13.6107 37.5098 13.6442 37.146 13.4972C36.7821 13.3517 36.4911 13.0097 36.411 12.6808C36.3092 12.2646 35.8886 12.0084 35.4724 12.1103C35.0562 12.2122 34.8015 12.6313 34.9019 13.0475C35.2454 14.2598 36.021 14.8011 36.9 15.0311V15.7602C36.9 16.1895 37.2478 16.5358 37.6757 16.5358C38.105 16.5358 38.4513 16.188 38.4513 15.7602L38.4528 15.0369C39.6898 14.6978 40.352 13.8101 40.5018 12.6808C40.5921 11.7989 40.2268 10.933 39.5443 10.3625C38.8792 9.79932 37.6364 9.79642 36.8054 9.09352C36.5187 8.85486 36.3601 8.46048 36.395 8.12429C36.4299 7.78957 36.6686 7.41703 37.0077 7.22636C37.3467 7.03569 37.8445 7.0037 38.2083 7.15069C38.5721 7.29622 38.8632 7.63676 38.9432 7.96565C39.0436 8.38332 39.4642 8.63945 39.8819 8.53759C40.2981 8.43572 40.5542 8.01516 40.4523 7.59894C40.1685 6.55259 39.4394 5.94138 38.4528 5.61976V4.89067C38.4528 4.46138 38.1049 4.11502 37.6771 4.11502L37.6771 4.11353Z" fill="#333333"/>
</svg>
