<svg width="40" height="46" viewBox="0 0 40 46" fill="none" xmlns="http://www.w3.org/2000/svg">
<path d="M1.66602 22.4689C1.66602 20.8539 2.97521 19.5448 4.59015 19.5448H35.2936C36.9086 19.5448 38.2177 20.8539 38.2177 22.4689V38.5517C38.2177 41.7817 35.5995 44.4 32.3695 44.4H7.51429C4.28438 44.4 1.66602 41.7817 1.66602 38.5517V22.4689Z" stroke="white" stroke-width="3" stroke-linecap="round" stroke-linejoin="round"/>
<path d="M7.51472 18.8138V18.3538C7.51472 13.7886 7.24006 8.69993 10.4285 5.43265C12.2468 3.56939 15.1891 2 19.9423 2C24.6955 2 27.6378 3.56939 29.456 5.43265C32.6445 8.69993 32.3699 13.7886 32.3699 18.3538V18.8138" stroke="white" stroke-width="3" stroke-linecap="round" stroke-linejoin="round"/>
</svg>
