<svg width="128" height="128" viewBox="0 0 128 128" fill="none" xmlns="http://www.w3.org/2000/svg">
<g clip-path="url(#clip0)">
<path d="M64.1068 128C28.6344 128 0 99.4725 0 64C0 28.5275 28.6344 0 64.1068 0C99.5793 0 128.214 28.6344 128 64.3205C127.893 99.5793 99.4725 127.893 64.1068 128ZM64 7.90651C32.6945 7.90651 7.47913 33.4424 7.90651 64.6411C8.22705 95.4123 33.3356 120.2 64.2137 120.093C95.5192 119.987 120.307 94.6644 120.2 63.8932C120.093 32.5876 94.6644 7.90651 64 7.90651Z" fill="white"/>
<path d="M45.943 64C45.943 55.8798 45.943 47.6528 45.943 39.5326C45.943 39.3189 45.943 38.9983 45.943 38.7846C45.943 37.7162 45.8361 36.5409 47.0114 36.0067C48.0799 35.4725 49.1483 36.0067 50.1099 36.5409C54.3837 39.1052 58.5506 41.7763 62.8244 44.3406C72.3336 50.1102 81.8428 55.9866 91.4588 61.6494C93.1683 62.611 93.1683 65.1753 91.352 66.2437C80.6675 72.6544 69.983 79.172 59.4054 85.5826C56.3069 87.399 53.3152 89.3222 50.2167 91.1386C49.7894 91.3523 49.362 91.6728 48.9346 91.7796C47.2251 92.4207 46.0498 91.5659 45.943 89.7496C45.943 87.5058 45.943 85.1553 45.943 82.9115C45.943 76.8214 45.943 70.4107 45.943 64Z" fill="white"/>
</g>
<defs>
<clipPath id="clip0">
<rect width="128" height="128" fill="white"/>
</clipPath>
</defs>
</svg>
