<svg width="13" height="13" viewBox="0 0 13 13" fill="none" xmlns="http://www.w3.org/2000/svg">
<path d="M6.5 0C4.25669 0 2.4375 1.84681 2.4375 4.12506V4.875H1.625C1.1765 4.875 0.8125 5.239 0.8125 5.6875V12.1875C0.8125 12.636 1.1765 13 1.625 13H11.375C11.8235 13 12.1875 12.636 12.1875 12.1875V5.6875C12.1875 5.239 11.8235 4.875 11.375 4.875H10.5625V4.12506C10.5625 1.84681 8.74331 0 6.5 0ZM3.25 4.12506C3.25 2.29856 4.70762 0.8125 6.5 0.8125C8.29238 0.8125 9.75 2.29856 9.75 4.12506V4.875H3.25V4.12506ZM11.375 12.1875H1.625V5.6875H11.375V12.1875ZM8.125 8.9375C8.125 8.03969 7.39781 7.3125 6.5 7.3125C5.60219 7.3125 4.875 8.03969 4.875 8.9375C4.875 9.83531 5.60219 10.5625 6.5 10.5625C7.39781 10.5625 8.125 9.83531 8.125 8.9375ZM6.5 9.75C6.05231 9.75 5.6875 9.38519 5.6875 8.9375C5.6875 8.48981 6.05231 8.125 6.5 8.125C6.94769 8.125 7.3125 8.48981 7.3125 8.9375C7.3125 9.38519 6.94769 9.75 6.5 9.75Z" fill="white"/>
</svg>
