<svg width="43" height="66" viewBox="0 0 43 66" fill="none" xmlns="http://www.w3.org/2000/svg">
<path d="M10.1018 65.2607C9.62358 64.9432 9.54388 64.5464 9.54388 63.9909C9.54388 60.8958 9.54388 57.88 9.54388 54.7849C9.54388 54.5468 9.54388 54.3087 9.54388 54.2294C8.26858 53.5945 7.073 53.1976 6.11653 52.404C4.52241 51.2136 3.64565 49.547 3.56594 47.563C3.48624 43.1187 3.48624 38.5951 3.56594 34.1508C3.64565 30.5795 6.91359 27.3257 10.5003 27.1669C13.2103 27.0876 15.8406 27.0876 18.5506 27.1669C20.9418 27.2463 22.6156 29.0716 22.5359 31.5318C22.4562 33.754 20.623 35.4999 18.3115 35.5793C17.1159 35.5793 15.8406 35.5793 14.645 35.5793C13.848 35.5793 13.6886 35.738 13.6886 36.5316C13.6886 37.7221 13.6886 38.9125 13.6886 40.1823C17.0362 40.341 19.7462 41.6902 21.8186 44.2298C22.6156 43.5155 23.333 42.7219 24.2097 42.1663C25.2459 41.5314 26.3618 41.1346 27.4777 40.7378C27.8762 40.5791 28.3544 40.5791 28.5138 41.1346C28.6733 41.6902 28.2747 41.8489 27.7168 42.0076C25.485 42.5632 24.3691 43.2774 22.6953 45.3408C23.0142 46.1344 23.333 46.8487 23.6518 47.6423C23.8112 48.0391 23.8112 48.5153 23.333 48.674C22.8547 48.8327 22.6156 48.5153 22.4562 48.0391C21.2606 44.3885 18.71 42.1663 14.9639 41.5314C14.0074 41.3727 13.0509 41.5314 12.0945 41.5314C11.8553 41.5314 11.6162 41.6902 11.3771 41.6108C11.138 41.5315 10.7395 41.2934 10.7395 41.1346C10.7395 40.8966 10.9786 40.5791 11.2177 40.4204C11.4568 40.2617 11.7756 40.2617 12.1742 40.1823C12.1742 38.9125 12.1742 37.6427 12.1742 36.4523C12.1742 34.865 13.1306 33.9127 14.7248 33.9127C16 33.9127 17.2753 33.9127 18.4709 33.9127C19.9056 33.9127 21.0215 32.881 21.1012 31.4525C21.1809 30.1827 20.1447 28.9129 18.7897 28.8335C16.0797 28.7542 13.29 28.6748 10.5801 28.9129C7.55123 29.151 5.39918 31.6906 5.39918 34.7857C5.31947 38.9125 5.31947 43.1187 5.39918 47.2455C5.39918 50.1819 7.71064 52.3247 10.7395 52.404C11.6959 52.404 12.6524 52.404 13.6886 52.404C14.2465 52.404 14.645 52.6421 14.645 53.1976C14.645 53.8325 14.2465 54.0706 13.6089 53.9913C12.8915 53.9913 12.2539 53.9913 11.4568 53.9913C11.4568 54.3087 11.4568 54.5468 11.4568 54.8642C11.4568 57.9594 11.4568 60.9751 11.4568 64.0702C11.4568 64.6258 11.3771 65.0226 10.8989 65.34C10.4206 65.2607 10.2612 65.2607 10.1018 65.2607Z" fill="#333333" stroke="#333333" stroke-width="0.5" stroke-miterlimit="10"/>
<path d="M30.6658 65.2607C30.1876 65.0227 30.1079 64.6258 30.1079 64.0703C30.1079 60.9752 30.1079 57.8801 30.1079 54.785C30.1079 54.5469 30.1079 54.3088 30.1079 53.912C29.3108 53.912 28.6731 53.912 27.9558 53.912C27.3979 53.912 26.9993 53.7533 26.9993 53.1184C26.9993 52.4835 27.3979 52.3248 27.9558 52.3248C29.2311 52.3248 30.5064 52.3247 31.7817 52.166C34.0931 51.9279 36.0061 49.9439 36.0858 47.6424C36.1655 45.6583 36.1655 43.6743 36.1655 41.6903C36.1655 41.4522 36.1655 41.2141 36.1655 40.976C36.2452 40.4998 36.4843 40.1824 37.0423 40.1824C37.5205 40.1824 37.8393 40.4998 37.8393 40.976C37.8393 42.4045 37.8393 43.833 37.8393 45.2615C37.8393 46.3726 37.919 47.563 37.6002 48.5947C36.9625 51.293 35.1293 52.9596 32.499 53.5945C32.3396 53.5945 32.2599 53.6739 32.1005 53.6739C32.0208 53.6739 31.9411 53.7533 31.8614 53.7533C31.8614 53.9913 31.8614 54.3088 31.8614 54.5469C31.8614 57.642 31.8614 60.6578 31.8614 63.7529C31.8614 64.1497 31.5426 64.5465 31.3831 65.0227C31.0643 65.2607 30.9049 65.2607 30.6658 65.2607Z" fill="#333333" stroke="#333333" stroke-width="0.5" stroke-miterlimit="10"/>
<path d="M25.3257 29.2304C25.3257 31.0557 25.3257 32.881 25.3257 34.7857C25.3257 36.7698 24.0504 38.5157 22.2172 39.23C20.3839 39.9442 18.2319 39.4681 16.8769 38.1189L16.7972 38.0395C16.3986 37.6427 16.3189 37.1666 16.7175 36.7698C17.116 36.3729 17.5942 36.4523 17.9928 36.8491C18.8695 37.8015 19.9854 38.1189 21.2607 37.8015C22.7751 37.484 23.8113 36.2142 23.8113 34.627C23.8113 31.0557 23.8113 27.4844 23.8113 23.8338C23.8113 21.9291 22.2969 20.5799 20.4636 20.5799C18.6304 20.5799 17.2754 21.9291 17.1957 23.8338C17.1957 24.3893 17.1957 24.9448 17.1957 25.5004C17.1957 26.0559 16.9566 26.4527 16.3986 26.4527C15.8407 26.4527 15.5219 26.1353 15.6016 25.5004C15.6813 24.548 15.6016 23.5163 15.761 22.564C16.3189 20.1038 18.6304 18.6752 21.2607 18.9927C23.4925 19.2308 25.3257 21.2942 25.4054 23.675C25.3257 25.5004 25.3257 27.3257 25.3257 29.2304Z" fill="#333333" stroke="#333333" stroke-width="0.5" stroke-miterlimit="10"/>
<path d="M32.5788 29.5478C32.5788 31.6112 32.6585 33.5953 32.5788 35.6587C32.4991 37.1666 31.702 38.357 30.347 38.9919C28.992 39.7062 27.5573 39.6268 26.282 38.8332C26.0429 38.6744 25.8038 38.2776 25.8038 37.9602C25.8038 37.7221 26.1226 37.4047 26.3617 37.2459C26.5211 37.1666 26.8399 37.2459 27.0791 37.4047C28.6732 38.357 30.9846 37.4047 30.9846 34.9444C30.9846 31.2938 30.9846 27.6431 30.9846 23.9925C30.9846 22.9608 30.6658 22.0085 29.6296 21.5323C28.6732 21.0561 27.7964 21.1355 26.9196 21.7704C26.4414 22.0878 25.9632 22.0878 25.6444 21.6116C25.3255 21.1355 25.4849 20.7387 25.9632 20.4212C27.3182 19.4689 28.7529 19.3895 30.1876 20.0244C31.6223 20.6593 32.4991 21.8497 32.4991 23.437C32.5788 25.5004 32.5788 27.5638 32.5788 29.5478Z" fill="#333333" stroke="#333333" stroke-width="0.5" stroke-miterlimit="10"/>
<path d="M38.9554 31.2144C38.9554 32.8017 38.9554 34.3889 38.9554 35.9761C38.9554 38.6745 36.086 40.3411 33.7745 39.0713C33.2165 38.7538 32.9774 38.2776 33.2165 37.8015C33.5354 37.2459 34.0136 37.3253 34.4918 37.5634C35.9265 38.2776 37.2815 37.484 37.2815 35.8968C37.2815 32.8017 37.2815 29.7066 37.2815 26.5321C37.2815 24.8655 35.6874 24.0719 34.3324 24.9448C33.8542 25.2623 33.376 25.3417 33.0571 24.8655C32.7383 24.4687 32.8977 23.9925 33.4557 23.5957C34.6512 22.8814 35.8468 22.8021 37.1221 23.437C38.3177 24.0719 38.9554 25.1036 38.9554 26.3734C38.9554 27.9606 38.9554 29.6272 38.9554 31.2144Z" fill="#333333" stroke="#333333" stroke-width="0.5" stroke-miterlimit="10"/>
<path d="M12.1741 19.5482C12.8915 19.7863 13.6088 19.945 14.3262 20.1831C14.8841 20.3418 15.2029 20.7386 14.9638 21.3735C14.8044 21.8497 14.3262 21.9291 13.6088 21.691C12.0944 21.0561 10.5003 21.3735 9.54384 22.4846C8.98589 23.1195 8.74678 23.9131 8.74678 24.7861C8.74678 25.1035 8.82648 25.5004 8.66707 25.7384C8.50766 26.0559 8.18884 26.3733 7.87001 26.3733C7.6309 26.3733 7.23237 26.0559 7.15266 25.8178C6.43531 22.7227 8.90619 19.6276 12.1741 19.5482Z" fill="#333333" stroke="#333333" stroke-width="0.5" stroke-miterlimit="10"/>
<path d="M21.1813 0.660034C21.6595 0.660034 22.058 0.660034 22.5363 0.660034C22.5363 3.35834 22.5363 5.97728 22.5363 8.75495C22.1377 8.75495 21.6595 8.83431 21.1813 8.83431C21.1813 6.05664 21.1813 3.4377 21.1813 0.660034Z" fill="#333333" stroke="#333333" stroke-width="0.5" stroke-miterlimit="10"/>
<path d="M6.11671 15.1039C5.71818 15.4214 5.39935 15.5801 4.92112 15.9769C3.56612 13.5961 2.21112 11.2946 0.856125 8.91372C1.33436 8.67563 1.65318 8.43755 2.13142 8.19946C3.48642 10.501 4.76171 12.8025 6.11671 15.1039Z" fill="#333333" stroke="#333333" stroke-width="0.5" stroke-miterlimit="10"/>
<path d="M40.8686 7.88196C41.3468 8.12004 41.6656 8.35813 42.1439 8.59622C40.7889 10.9771 39.4339 13.1992 38.0789 15.6594C37.6804 15.4213 37.2818 15.2626 36.8036 15.0245C38.1586 12.5643 39.4339 10.3422 40.8686 7.88196Z" fill="#333333" stroke="#333333" stroke-width="0.5" stroke-miterlimit="10"/>
</svg>
