<svg width="31" height="31" viewBox="0 0 31 31" fill="none" xmlns="http://www.w3.org/2000/svg">
<path d="M4.68635 23.2924C3.37854 21.4881 2.51272 19.3326 2.25237 16.9773C2.19788 16.4869 1.75588 16.1297 1.26545 16.1842C0.775024 16.2387 0.417797 16.6807 0.47229 17.1711C1.31389 24.8121 7.75608 30.5762 15.4576 30.5762C23.7707 30.5762 30.5338 23.8131 30.5338 15.5C30.5338 7.18691 23.7707 0.423828 15.4576 0.423828C11.849 0.423828 8.35549 1.71953 5.62483 4.06875C2.92444 6.39375 1.1262 9.60879 0.569165 13.1084C0.490454 13.5988 0.823462 14.059 1.31389 14.1377C1.80432 14.2164 2.26448 13.8834 2.34319 13.393C2.83362 10.3051 4.41389 7.47754 6.79944 5.43105C9.20315 3.36035 12.2789 2.21602 15.4637 2.21602C22.7899 2.21602 28.7477 8.17383 28.7477 15.5C28.7477 18.4002 27.8092 21.0885 26.2289 23.2742C24.6305 21.3609 22.6264 19.8412 20.3377 18.824C22.4024 16.7533 22.9412 13.6109 21.6637 10.959C21.4518 10.5109 20.9129 10.3232 20.4649 10.5412C20.0168 10.7531 19.8291 11.292 20.0471 11.74C21.0037 13.726 20.586 16.0873 19.0057 17.6191L18.5213 18.0854C18.2065 18.3881 18.0733 18.8301 18.158 19.2539C18.2428 19.6838 18.5395 20.035 18.9451 20.1924C21.3489 21.1248 23.4438 22.6688 25.0483 24.6789C22.6264 27.2037 19.2237 28.784 15.4576 28.784C11.7037 28.784 8.28284 27.2279 5.85491 24.691C7.4594 22.6748 9.55432 21.1248 11.9641 20.1924C12.3698 20.035 12.6664 19.6838 12.7512 19.2539C12.836 18.824 12.7028 18.3881 12.3879 18.0854L11.9035 17.6191C10.7108 16.4627 10.1719 14.8643 10.408 13.2234C10.6502 11.5826 11.6311 10.2082 13.1024 9.43926C14.5555 8.68242 16.2932 8.67637 17.7524 9.42109C18.1944 9.64512 18.7332 9.46953 18.9573 9.02754C19.1813 8.58555 19.0057 8.04668 18.5637 7.82266C16.5899 6.81758 14.2346 6.82969 12.2729 7.84688C10.2869 8.88223 8.95491 10.741 8.63401 12.9631C8.31311 15.1428 9.02151 17.274 10.5776 18.8301C8.29495 19.8412 6.28479 21.367 4.68635 23.2924Z" fill="#C10230"/>
</svg>
