<svg width="24" height="14" viewBox="0 0 24 14" fill="none" xmlns="http://www.w3.org/2000/svg">
<path d="M24 6.9985C24 6.4465 23.552 5.9985 23 5.9985L3.414 5.9985L7.706 1.7065C8.096 1.3165 8.096 0.682499 7.706 0.292499C7.316 -0.0975007 6.682 -0.0975008 6.292 0.292499L0.292 6.2925C0.289999 6.2945 0.289999 6.2985 0.285999 6.3005C0.198 6.3905 0.124 6.4985 0.0759999 6.6165C-0.0259994 6.8605 -0.0259994 7.1365 0.0759999 7.3805C0.125999 7.5025 0.2 7.6125 0.291999 7.7045L6.292 13.7045C6.682 14.0945 7.316 14.0945 7.706 13.7045C8.096 13.3145 8.096 12.6805 7.706 12.2905L3.414 7.9985L23 7.9985C23.552 7.9985 24 7.5505 24 6.9985Z" fill="#D8D8D8"/>
</svg>
