<svg width="31" height="31" viewBox="0 0 31 31" fill="none" xmlns="http://www.w3.org/2000/svg">
<g clip-path="url(#clip0)">
<path d="M9.89042 24.1104C8.1009 24.1104 6.65552 25.5626 6.65552 27.3453C6.65552 29.1348 8.10778 30.5802 9.89042 30.5802C11.6799 30.5802 13.1253 29.1279 13.1253 27.3453C13.1253 25.5626 11.6731 24.1104 9.89042 24.1104ZM9.89042 29.1485C8.8993 29.1485 8.09402 28.3433 8.09402 27.3521C8.09402 26.361 8.8993 25.5557 9.89042 25.5557C10.8815 25.5557 11.6868 26.361 11.6868 27.3521C11.6868 28.3433 10.8815 29.1485 9.89042 29.1485Z" fill="#C10230"/>
<path d="M23.5528 24.1104C21.7633 24.1104 20.3179 25.5626 20.3179 27.3453C20.3179 29.1348 21.7701 30.5802 23.5528 30.5802C25.3354 30.5802 26.7877 29.1279 26.7877 27.3453C26.7877 25.5626 25.3423 24.1104 23.5528 24.1104ZM23.5528 29.1485C22.5617 29.1485 21.7564 28.3433 21.7564 27.3521C21.7564 26.361 22.5617 25.5557 23.5528 25.5557C24.5439 25.5557 25.3492 26.361 25.3492 27.3521C25.3492 28.3433 24.5439 29.1485 23.5528 29.1485Z" fill="#C10230"/>
<path d="M30.8555 5.2309C30.704 5.06572 30.4976 4.96248 30.2773 4.94183L6.86901 4.62522L6.22203 2.64986C5.76776 1.32149 4.52886 0.426729 3.13166 0.412964H0.722691C0.32349 0.412964 0 0.736454 0 1.13565C0 1.53486 0.32349 1.85146 0.715808 1.85146H3.12478C3.90941 1.87211 4.59769 2.36767 4.85235 3.11101L9.42251 16.8834L9.06461 17.7094C8.66541 18.7418 8.78242 19.905 9.3881 20.841C9.9869 21.7564 10.9918 22.3208 12.0861 22.3484H26.0719C26.4711 22.3484 26.7877 22.0249 26.7877 21.6325C26.7877 21.2402 26.4643 20.9167 26.0719 20.9167H12.0793C11.4598 20.903 10.8954 20.5795 10.5719 20.0564C10.2484 19.5402 10.1796 18.9001 10.393 18.3288L10.6821 17.6818L25.8242 16.0988C27.4898 15.913 28.8526 14.7085 29.238 13.0773L30.9656 5.85035C31.0413 5.63699 31 5.40297 30.8555 5.2309ZM27.8339 12.7469C27.5999 13.7931 26.712 14.5708 25.6383 14.6534L10.6821 16.202L7.33703 6.06372L29.3825 6.38721L27.8339 12.7469Z" fill="#C10230"/>
</g>
<defs>
<clipPath id="clip0">
<rect width="31" height="31" fill="white"/>
</clipPath>
</defs>
</svg>
