<svg width="56" height="53" viewBox="0 0 56 53" fill="none" xmlns="http://www.w3.org/2000/svg">
<path d="M13.4608 25.6788C12.7819 27.2875 11.2367 28.1692 10.0095 27.6502C8.78407 27.1328 8.34062 25.4089 9.02124 23.8019C9.70014 22.1931 11.2453 21.3114 12.4725 21.8305C13.6979 22.3478 14.1414 24.0717 13.4608 25.6788" stroke="#333333" stroke-miterlimit="10"/>
<path d="M42.8127 42.1703C42.6271 41.3676 42.1407 40.6853 41.4429 40.2487C40.9513 39.941 40.3876 39.7795 39.8101 39.7795C38.8871 39.7795 38.0346 40.1817 37.452 40.8709L34.2912 38.8943C34.824 36.4863 34.0798 34.0455 32.3197 32.5953C28.2687 15.7807 16.6755 12.6629 16.5589 12.6338L16.1464 12.529L16.1533 12.5427C15.459 12.3519 14.7405 12.2488 14.01 12.2488C9.28004 12.2488 4.63408 16.2346 2.71084 21.9407C1.5902 25.2665 1.52834 28.7299 2.53209 31.6964C3.44645 34.3931 5.14459 36.3885 7.36197 37.4045L7.33275 37.4165L7.71259 37.597C15.5723 41.3198 19.058 41.5845 22.4302 41.8406C23.1778 41.8973 23.9512 41.9574 24.7574 42.0537C25.2799 42.5006 25.8659 42.834 26.4984 43.0471C27.2461 43.2981 28.0092 43.427 28.7637 43.427C29.9634 43.427 31.0394 43.1073 31.9262 42.5212L35.154 44.5407C34.8842 45.1474 34.8189 45.8212 34.9701 46.4794C35.1558 47.2821 35.6421 47.9644 36.34 48.401C36.8315 48.7087 37.3953 48.8702 37.9728 48.8702C39.0436 48.8702 40.0215 48.3288 40.5904 47.4213C40.917 46.8988 41.0768 46.2921 41.0562 45.6785C41.6165 45.4293 42.0926 45.0202 42.4192 44.4977C42.8575 43.7999 42.9967 42.9732 42.8128 42.1705L42.8127 42.1703ZM3.36762 31.4127C2.42404 28.6283 2.4859 25.3645 3.54637 22.2224C5.34935 16.8667 9.65313 13.1285 14.01 13.1285C14.7955 13.1285 15.5672 13.254 16.3028 13.5015C16.4472 13.5496 16.5898 13.6046 16.7308 13.6613L16.7325 13.6648C16.7462 13.6699 16.7651 13.6768 16.7789 13.6819C21.3061 15.5794 23.2825 21.9319 21.1842 28.1623C19.3829 33.518 15.0792 37.2563 10.7205 37.2563C9.93505 37.2563 9.16333 37.1308 8.42774 36.8833C6.09367 36.0978 4.29588 34.1539 3.36774 31.4123L3.36762 31.4127ZM28.7657 42.4954C28.1126 42.4954 27.4492 42.3837 26.7977 42.1637C26.2409 41.9764 25.7252 41.6721 25.2698 41.2614L25.1615 41.1634L25.0171 41.1445C24.1371 41.0328 23.3052 40.9709 22.5026 40.909C19.6839 40.6942 16.7808 40.4724 11.1537 38.1126C15.7323 37.8788 20.1583 33.9756 22.0212 28.4427C23.6197 23.7008 22.9682 18.878 20.6823 15.7395C24.2745 18.2127 29.1435 23.2265 31.4504 32.9633L31.4882 33.1231L31.6189 33.2245C33.3497 34.5651 33.9856 37.0281 33.2036 39.352C32.5384 41.3199 30.8799 42.4955 28.7657 42.4955L28.7657 42.4954ZM41.6753 44.032C41.3969 44.4771 40.9655 44.8089 40.4585 44.9653L40.0975 45.077L40.1543 45.4517C40.235 45.9759 40.125 46.5087 39.8466 46.9556C39.441 47.6036 38.7415 47.992 37.9749 47.992C37.5624 47.992 37.1602 47.8751 36.8096 47.6551C36.3094 47.3423 35.9622 46.8559 35.8299 46.2819C35.6975 45.7078 35.7972 45.1183 36.11 44.6181L36.3438 44.2452L32.7843 42.0177L33.2586 41.258C33.4133 41.0466 33.5525 40.8214 33.6797 40.5859L34.1455 39.84L37.705 42.0675L37.9388 41.6945C38.3444 41.0466 39.0456 40.6581 39.8105 40.6581C40.223 40.6581 40.6252 40.775 40.9758 40.9933C41.4759 41.3061 41.8231 41.7925 41.9555 42.3666C42.0861 42.9423 41.9882 43.5319 41.6753 44.0321L41.6753 44.032Z" fill="#333333"/>
<path d="M49.5466 13.7353C49.1322 13.4803 48.6222 13.4604 48.1866 13.6769L46.0881 14.738C45.7986 14.147 45.4081 13.5959 44.9327 13.0035C45.1133 12.7113 45.2142 12.3886 45.2355 12.038C45.2594 11.6169 45.1677 11.168 44.9566 10.7019C44.5143 9.72305 43.5527 8.68578 42.3176 7.85305C41.0864 7.02297 39.8114 6.54752 38.8193 6.54752C38.4209 6.54752 38.0743 6.91407 36.9121 8.37634C36.5416 8.84252 35.9877 9.53979 35.7899 9.68854C34.6437 9.96744 33.5148 10.5452 32.431 11.4085C31.5638 12.0991 30.7244 12.969 29.9315 13.9957C28.5914 15.7395 27.8569 17.3173 27.8304 17.385C27.7759 17.5046 27.7759 17.64 27.8304 17.7596C27.8676 17.838 28.7388 19.7252 30.3127 21.6458C31.2437 22.7853 32.2331 23.6964 33.2505 24.3552C34.4816 25.1574 35.7593 25.589 37.0449 25.6435C37.2255 25.8268 37.5682 26.1668 37.9626 26.5001C38.717 27.1363 39.2881 27.4417 39.737 27.4417C39.8087 27.4417 39.8764 27.4351 39.9442 27.4178C40.2364 27.3501 41.2696 27.0818 42.3348 26.524C43.4026 25.9636 44.0826 25.3234 44.3575 24.6195C44.5076 24.2356 44.5992 23.6579 44.2659 22.9779C44.6709 22.5967 45.0269 22.1824 45.3403 21.7441L48.1958 23.1891C48.6314 23.4096 49.1414 23.3896 49.5558 23.1306C49.9702 22.8756 50.2225 22.4307 50.2225 21.9406L50.2238 14.9254C50.2132 14.4367 49.9648 13.9904 49.5465 13.7354L49.5466 13.7353ZM49.3115 21.9497C49.3115 22.1264 49.2265 22.2791 49.0737 22.3707C48.921 22.4624 48.747 22.469 48.5903 22.3907L45.3802 20.765C45.173 20.6601 44.9207 20.7305 44.7958 20.9244C44.4213 21.5194 43.9458 22.0666 43.388 22.5527C43.218 22.7028 43.1835 22.9578 43.3097 23.1437C43.5846 23.5515 43.6497 23.9287 43.5062 24.2926C43.0812 25.3843 40.9629 26.2515 39.7292 26.5437C39.7119 26.5437 39.4064 26.557 38.5126 25.796C37.996 25.3577 37.5643 24.8982 37.5603 24.8915C37.4753 24.8026 37.3598 24.7481 37.2376 24.7481C34.5522 24.7136 32.3726 22.7386 31.0125 21.089C29.7854 19.5962 28.9898 18.0875 28.7308 17.5693C28.9619 17.1071 29.6286 15.8521 30.6486 14.5266C31.8121 13.0205 33.6914 11.1066 36.0383 10.549C36.3611 10.4706 36.6878 10.0894 37.6095 8.93396C37.8911 8.58066 38.1846 8.21278 38.4329 7.92456C38.7012 7.61511 38.838 7.49293 38.8951 7.4451C39.6947 7.47166 40.7758 7.90063 41.8051 8.59392C42.8862 9.32438 43.7561 10.2501 44.1266 11.0695C44.4321 11.7456 44.3949 12.2861 44.0177 12.7191C43.8716 12.8851 43.8676 13.1335 44.0111 13.3035C44.6605 14.0857 45.1506 14.7618 45.4428 15.5135C45.4866 15.633 45.5822 15.7246 45.7018 15.7725C45.8213 15.8163 45.9528 15.8096 46.0657 15.7552L48.5891 14.4762C48.7458 14.3978 48.9225 14.4045 49.0726 14.4961C49.2226 14.5878 49.3103 14.7445 49.3103 14.9172L49.309 21.9497H49.3115Z" fill="#333333"/>
<path d="M30.9992 16.5923L30.7335 16.5552C30.4892 16.5206 30.2607 16.6946 30.2275 16.939C30.193 17.1834 30.367 17.4118 30.6113 17.445L30.877 17.4822C30.8969 17.4862 30.9181 17.4862 30.9381 17.4862C31.1585 17.4862 31.3525 17.3228 31.383 17.0957C31.4175 16.85 31.2475 16.6229 30.9992 16.5923L30.9992 16.5923Z" fill="#333333"/>
</svg>
