<svg width="14" height="14" viewBox="0 0 14 14" fill="none" xmlns="http://www.w3.org/2000/svg">
<path d="M7.4375 0.875C3.81325 0.875 0.875 3.81325 0.875 7.4375C0.875 11.0618 3.81325 14 7.4375 14C11.0618 14 14 11.0618 14 7.4375C14 3.81325 11.0618 0.875 7.4375 0.875ZM12.2229 4.375H10.9191C10.6654 3.577 10.3171 2.87788 9.89713 2.317C10.8491 2.77637 11.655 3.49125 12.2229 4.375ZM7.875 4.375V1.82175C8.70188 2.06588 9.50775 2.98288 10.0039 4.375H7.875ZM10.2585 5.25C10.3819 5.7855 10.4615 6.37175 10.4869 7H7.875V5.25H10.2585ZM7 1.82175V4.375H4.87112C5.36725 2.98288 6.17312 2.06588 7 1.82175ZM7 5.25V7H4.38812C4.4135 6.37175 4.49312 5.7855 4.6165 5.25H7ZM3.51312 7H1.77188C1.81913 6.38487 1.96 5.79513 2.18837 5.25H3.72838C3.61113 5.80387 3.53762 6.38925 3.51312 7ZM3.51312 7.875C3.53762 8.48575 3.61113 9.07113 3.72838 9.625H2.18837C1.96 9.07987 1.81913 8.49013 1.77188 7.875H3.51312ZM4.38812 7.875H7V9.625H4.6165C4.49312 9.0895 4.4135 8.50325 4.38812 7.875ZM7 10.5V13.0533C6.17312 12.8091 5.36725 11.8921 4.87112 10.5H7ZM7.875 13.0533V10.5H10.0039C9.50775 11.8921 8.70188 12.8091 7.875 13.0533ZM7.875 9.625V7.875H10.4869C10.4615 8.50325 10.3819 9.0895 10.2585 9.625H7.875ZM11.3619 7.875H13.1031C13.0559 8.49013 12.915 9.07987 12.6866 9.625H11.1466C11.2639 9.07113 11.3374 8.48575 11.3619 7.875ZM11.3619 7C11.3374 6.38925 11.2639 5.80387 11.1466 5.25H12.6866C12.915 5.79513 13.0559 6.38487 13.1031 7H11.3619ZM4.97788 2.317C4.55875 2.87788 4.20963 3.577 3.95587 4.375H2.65212C3.22 3.49125 4.02588 2.77637 4.97788 2.317ZM2.65212 10.5H3.95587C4.20963 11.298 4.55788 11.9971 4.97788 12.558C4.02588 12.0986 3.22 11.3837 2.65212 10.5ZM9.89713 12.558C10.3162 11.9971 10.6654 11.298 10.9191 10.5H12.2229C11.655 11.3837 10.8491 12.0986 9.89713 12.558Z" fill="white"/>
</svg>
