<svg width="44" height="67" viewBox="0 0 44 67" fill="none" xmlns="http://www.w3.org/2000/svg">
<path d="M10.426 66.5971C9.94042 66.2748 9.85948 65.8718 9.85948 65.3077C9.85948 62.1649 9.85948 59.1026 9.85948 55.9597C9.85948 55.718 9.85948 55.4762 9.85948 55.3956C8.56452 54.751 7.35049 54.348 6.37927 53.5422C4.76056 52.3334 3.87027 50.6411 3.78934 48.6264C3.7084 44.1136 3.7084 39.5202 3.78934 35.0074C3.87027 31.381 7.18862 28.077 10.8307 27.9158C13.5825 27.8352 16.2534 27.8352 19.0052 27.9158C21.4332 27.9964 23.1329 29.8499 23.0519 32.348C22.971 34.6044 21.1095 36.3773 18.7624 36.4579C17.5483 36.4579 16.2534 36.4579 15.0393 36.4579C14.23 36.4579 14.0681 36.6191 14.0681 37.4249C14.0681 38.6337 14.0681 39.8425 14.0681 41.1319C17.4674 41.2931 20.2192 42.663 22.3235 45.2418C23.1329 44.5165 23.8613 43.7107 24.7516 43.1466C25.8037 42.5019 26.9368 42.0989 28.0699 41.696C28.4746 41.5348 28.9602 41.5348 29.1221 42.0989C29.2839 42.663 28.8793 42.8242 28.3127 42.9854C26.0465 43.5495 24.9134 44.2748 23.2138 46.37C23.5375 47.1759 23.8613 47.9011 24.185 48.707C24.3469 49.1099 24.3469 49.5934 23.8613 49.7546C23.3757 49.9158 23.1329 49.5934 22.971 49.1099C21.757 45.403 19.167 43.1466 15.3631 42.5019C14.3919 42.3407 13.4206 42.5019 12.4494 42.5019C12.2066 42.5019 11.9638 42.663 11.721 42.5825C11.4782 42.5019 11.0735 42.2601 11.0735 42.0989C11.0735 41.8572 11.3163 41.5348 11.5591 41.3737C11.8019 41.2125 12.1257 41.2125 12.5303 41.1319C12.5303 39.8425 12.5303 38.5532 12.5303 37.3444C12.5303 35.7326 13.5016 34.7656 15.1203 34.7656C16.4152 34.7656 17.7102 34.7656 18.9242 34.7656C20.3811 34.7656 21.5142 33.718 21.5951 32.2674C21.676 30.9781 20.6239 29.6887 19.248 29.6081C16.4962 29.5275 13.6634 29.4469 10.9116 29.6887C7.8361 29.9304 5.65085 32.5092 5.65085 35.652C5.56991 39.8425 5.56991 44.1136 5.65085 48.3041C5.65085 51.2858 7.99797 53.4616 11.0735 53.5422C12.0447 53.5422 13.016 53.5422 14.0681 53.5422C14.6347 53.5422 15.0393 53.7839 15.0393 54.348C15.0393 54.9927 14.6347 55.2345 13.9872 55.1539C13.2588 55.1539 12.6113 55.1539 11.8019 55.1539C11.8019 55.4762 11.8019 55.718 11.8019 56.0403C11.8019 59.1832 11.8019 62.2455 11.8019 65.3883C11.8019 65.9524 11.721 66.3554 11.2354 66.6777C10.7498 66.5971 10.5879 66.5971 10.426 66.5971Z" fill="#333333" stroke="#333333" stroke-width="0.03" stroke-miterlimit="10"/>
<path d="M31.3072 66.5972C30.8216 66.3554 30.7407 65.9525 30.7407 65.3884C30.7407 62.2455 30.7407 59.1027 30.7407 55.9598C30.7407 55.718 30.7407 55.4763 30.7407 55.0734C29.9313 55.0734 29.2839 55.0734 28.5555 55.0734C27.9889 55.0734 27.5842 54.9122 27.5842 54.2675C27.5842 53.6228 27.9889 53.4616 28.5555 53.4616C29.8504 53.4616 31.1454 53.4616 32.4403 53.3005C34.7875 53.0587 36.7299 51.044 36.8108 48.7071C36.8918 46.6924 36.8918 44.6777 36.8918 42.6631C36.8918 42.4213 36.8918 42.1796 36.8918 41.9378C36.9727 41.4543 37.2155 41.132 37.7821 41.132C38.2677 41.132 38.5914 41.4543 38.5914 41.9378C38.5914 43.3884 38.5914 44.8389 38.5914 46.2895C38.5914 47.4177 38.6724 48.6265 38.3486 49.6741C37.7011 52.414 35.8396 54.1063 33.1688 54.751C33.0069 54.751 32.926 54.8316 32.7641 54.8316C32.6831 54.8316 32.6022 54.9122 32.5213 54.9122C32.5213 55.1539 32.5213 55.4763 32.5213 55.718C32.5213 58.8609 32.5213 61.9232 32.5213 65.066C32.5213 65.469 32.1975 65.8719 32.0357 66.3554C31.7119 66.5972 31.5501 66.5972 31.3072 66.5972Z" fill="#333333" stroke="#333333" stroke-width="0.03" stroke-miterlimit="10"/>
<path d="M25.8847 30.011C25.8847 31.8645 25.8847 33.718 25.8847 35.6521C25.8847 37.6667 24.5897 39.4396 22.7282 40.1649C20.8667 40.8902 18.6815 40.4066 17.3056 39.0367L17.2246 38.9561C16.82 38.5532 16.739 38.0696 17.1437 37.6667C17.5484 37.2638 18.034 37.3444 18.4387 37.7473C19.3289 38.7143 20.462 39.0367 21.757 38.7143C23.2948 38.392 24.3469 37.1026 24.3469 35.4909C24.3469 31.8645 24.3469 28.2381 24.3469 24.5312C24.3469 22.5971 22.8092 21.2272 20.9477 21.2272C19.0861 21.2272 17.7102 22.5971 17.6293 24.5312C17.6293 25.0953 17.6293 25.6594 17.6293 26.2235C17.6293 26.7876 17.3865 27.1905 16.82 27.1905C16.2534 27.1905 15.9297 26.8682 16.0106 26.2235C16.0915 25.2565 16.0106 24.2088 16.1725 23.2418C16.739 20.7436 19.0861 19.2931 21.757 19.6154C24.0232 19.8572 25.8847 21.9524 25.9656 24.37C25.8847 26.2235 25.8847 28.077 25.8847 30.011Z" fill="#333333" stroke="#333333" stroke-width="0.03" stroke-miterlimit="10"/>
<path d="M33.2497 30.3334C33.2497 32.4286 33.3307 34.4433 33.2497 36.5385C33.1688 38.0696 32.3594 39.2784 30.9835 39.9231C29.6076 40.6484 28.1508 40.5678 26.8558 39.762C26.613 39.6008 26.3702 39.1979 26.3702 38.8755C26.3702 38.6337 26.694 38.3114 26.9368 38.1502C27.0986 38.0696 27.4224 38.1502 27.6652 38.3114C29.2839 39.2784 31.631 38.3114 31.631 35.8132C31.631 32.1063 31.631 28.3993 31.631 24.6924C31.631 23.6447 31.3073 22.6777 30.2551 22.1942C29.2839 21.7107 28.3936 21.7913 27.5033 22.436C27.0177 22.7583 26.5321 22.7583 26.2083 22.2748C25.8846 21.7913 26.0465 21.3883 26.5321 21.066C27.908 20.099 29.3648 20.0184 30.8217 20.6631C32.2785 21.3077 33.1688 22.5165 33.1688 24.1283C33.2497 26.2235 33.2497 28.3187 33.2497 30.3334Z" fill="#333333" stroke="#333333" stroke-width="0.03" stroke-miterlimit="10"/>
<path d="M39.7246 32.0257C39.7246 33.6375 39.7246 35.2492 39.7246 36.8609C39.7246 39.6008 36.811 41.2931 34.4639 40.0038C33.8973 39.6814 33.6545 39.1979 33.8973 38.7144C34.221 38.1503 34.7067 38.2309 35.1923 38.4726C36.6491 39.1979 38.025 38.392 38.025 36.7803C38.025 33.6375 38.025 30.4946 38.025 27.2712C38.025 25.5789 36.4063 24.773 35.0304 25.6594C34.5448 25.9818 34.0592 26.0624 33.7354 25.5789C33.4117 25.1759 33.5736 24.6924 34.1401 24.2895C35.3541 23.5642 36.5682 23.4836 37.8631 24.1283C39.0772 24.773 39.7246 25.8206 39.7246 27.11C39.7246 28.7217 39.7246 30.414 39.7246 32.0257Z" fill="#333333" stroke="#333333" stroke-width="0.03" stroke-miterlimit="10"/>
<path d="M12.5303 20.1796C13.2588 20.4213 13.9872 20.5825 14.7156 20.8243C15.2821 20.9854 15.6059 21.3884 15.3631 22.033C15.2012 22.5166 14.7156 22.5971 13.9872 22.3554C12.4494 21.7107 10.8307 22.033 9.85948 23.1612C9.29294 23.8059 9.05013 24.6118 9.05013 25.4982C9.05013 25.8206 9.13107 26.2235 8.9692 26.4653C8.80733 26.7876 8.48358 27.11 8.15984 27.11C7.91704 27.11 7.51236 26.7876 7.43143 26.5459C6.70301 23.403 9.212 20.2602 12.5303 20.1796Z" fill="#333333" stroke="#333333" stroke-width="0.03" stroke-miterlimit="10"/>
<path d="M21.6764 1C22.162 1 22.5667 1 23.0523 1C23.0523 3.73993 23.0523 6.39927 23.0523 9.21978C22.6476 9.21978 22.162 9.30037 21.6764 9.30037C21.6764 6.47985 21.6764 3.82051 21.6764 1Z" fill="#333333" stroke="#333333" stroke-width="0.5376" stroke-miterlimit="10"/>
<path d="M6.37945 15.6668C5.97477 15.9891 5.65103 16.1503 5.16542 16.5532C3.78952 14.1356 2.41362 11.7986 1.03772 9.38104C1.52333 9.13928 1.84707 8.89752 2.33268 8.65576C3.70858 10.9928 5.00355 13.3298 6.37945 15.6668Z" fill="#333333" stroke="#333333" stroke-width="0.5376" stroke-miterlimit="10"/>
<path d="M41.6674 8.33337C42.153 8.57513 42.4767 8.81689 42.9623 9.05865C41.5864 11.4762 40.2105 13.7326 38.8346 16.2308C38.43 15.9891 38.0253 15.8279 37.5397 15.5861C38.9156 13.088 40.2105 10.8315 41.6674 8.33337Z" fill="#333333" stroke="#333333" stroke-width="0.5376" stroke-miterlimit="10"/>
</svg>
