<svg width="60" height="60" viewBox="0 0 60 60" fill="none" xmlns="http://www.w3.org/2000/svg">
<path d="M30.0498 59.9994C13.4222 59.9994 0 46.6273 0 29.9997C0 13.3722 13.4222 0 30.0498 0C46.6774 0 60.0996 13.4222 59.9994 30.15C59.9494 46.6774 46.6273 59.9494 30.0498 59.9994ZM29.9997 3.70614C15.3254 3.70614 3.50581 15.676 3.70614 30.3002C3.85639 44.7241 15.6259 56.3434 30.0999 56.2933C44.7742 56.2432 56.3935 44.3735 56.3434 29.9496C56.2933 15.2753 44.3735 3.70614 29.9997 3.70614Z" fill="white"/>
<rect x="33.0547" y="15.5258" width="3.50581" height="27.5457" fill="white"/>
<rect x="23.0381" y="15.5258" width="3.50581" height="27.5457" fill="white"/>
</svg>
