<svg width="72" height="55" viewBox="0 0 72 55" fill="none" xmlns="http://www.w3.org/2000/svg">
<path d="M38.6622 36.4814C38.3428 36.6277 38.2076 36.9732 38.3564 37.2659C38.3107 37.6899 38.1451 38.0972 37.873 38.4472C37.6432 38.8546 37.295 39.1986 36.8658 39.443C36.5261 39.5079 36.2963 39.7885 36.3317 40.0963C36.3672 40.4041 36.6579 40.6379 37.0044 40.6379C37.05 40.6379 37.0973 40.6334 37.1429 40.6243C38.0437 40.4553 38.8177 39.3872 39.034 39.0643C39.2706 38.7097 40.0092 37.4952 39.5715 36.7393H39.5732C39.4903 36.5975 39.3484 36.4904 39.1777 36.4421C39.007 36.3938 38.8211 36.4074 38.6623 36.4813L38.6622 36.4814Z" fill="#333333"/>
<path d="M24.5 10.2241C19.122 10.2241 13.9646 12.361 10.1629 16.1629C6.3612 19.9648 4.22412 25.1224 4.22412 30.5C4.22412 35.8775 6.36099 41.0353 10.1629 44.837C13.9648 48.6388 19.1224 50.7758 24.5 50.7758C29.8775 50.7758 35.0353 48.639 38.837 44.837C42.6388 41.0351 44.7758 35.8775 44.7758 30.5C44.7695 25.1236 42.631 19.9707 38.831 16.169C35.0292 12.3689 29.8763 10.2302 24.5 10.2241V10.2241ZM42.7499 25.1934C41.7646 24.8702 40.6843 25.2267 39.8701 25.4975C39.6831 25.5593 39.4471 25.6385 39.2919 25.6749C38.6519 25.0334 37.7934 24.658 36.8889 24.6263C36.2822 24.5899 35.6945 24.8433 35.3032 25.309C34.9056 25.7747 34.7535 26.402 34.8914 27.0008C34.9611 27.2654 35.0561 27.522 35.1781 27.7659C35.2604 27.9275 35.3254 28.097 35.3745 28.2712C35.3238 28.3013 35.27 28.3251 35.2129 28.3425C34.8027 28.3916 34.3876 28.2966 34.0376 28.0748C33.6273 27.7406 33.0808 27.6281 32.5723 27.7722C31.9466 28.0146 31.4968 28.5674 31.3859 29.228C31.1625 30.2703 31.7423 30.8897 32.2539 31.4345C32.3347 31.5201 32.4171 31.6072 32.4994 31.7007V31.7023C33.0475 32.2456 33.7255 32.6384 34.47 32.8444C34.5666 32.8792 34.6633 32.9141 34.7599 32.9505C34.7266 33.0091 34.6918 33.0645 34.6696 33.101C34.5904 33.2293 34.5128 33.3608 34.4352 33.4938C34.2973 33.7283 34.1548 33.969 34.009 34.1829C33.8253 34.4537 33.6209 34.7151 33.4039 34.9923L33.4055 34.9907C32.8558 35.6228 32.4139 36.3403 32.0955 37.1134C31.8769 37.7993 31.7517 38.5089 31.7248 39.2265C31.6995 39.7128 31.6345 40.1975 31.53 40.6727C31.3811 41.1226 31.1355 41.536 30.8124 41.8829C30.22 42.5657 29.542 43.1692 28.7943 43.6808C28.3144 44.0293 27.6506 44.3509 27.2119 43.8947C26.6527 43.2516 26.282 42.4659 26.1411 41.6231C26.0682 41.2081 26.0302 40.7868 26.0286 40.3638C26.0365 39.7334 25.9557 39.1029 25.7847 38.4946C25.7086 38.2729 25.612 38.0574 25.5011 37.8499C25.3538 37.6329 25.2698 37.3779 25.2587 37.1149C25.368 36.0124 25.094 35.1555 24.4477 34.5694C23.3151 33.5445 21.4459 33.8217 21.1291 33.8772C20.3846 33.9279 19.7668 33.6396 18.9922 33.2736L18.7974 33.1818C17.5523 32.6004 17.074 31.5534 17.2466 29.784V29.7856C17.4811 27.9607 18.7784 26.4495 20.5478 25.9426C22.1461 25.5339 23.6921 25.9331 25.5486 26.4986C25.962 26.6254 26.8966 26.7188 28.5789 26.8028L28.6771 26.8075C29.6149 26.8566 30.334 26.657 30.8204 26.2151C31.1404 25.9395 31.3399 25.5498 31.3811 25.13C31.4841 24.2826 31.2164 23.4335 30.6446 22.7999C29.6007 21.691 27.7552 21.5833 26.4547 21.5976C26.1158 21.6008 25.7594 21.6277 25.414 21.653C24.6362 21.7117 23.8316 21.7703 23.1948 21.5786V21.5802C23.1377 21.5643 23.0823 21.5422 23.03 21.5152C23.0094 21.303 23.1187 21.1842 23.6414 20.8436H23.6399C23.9139 20.682 24.1642 20.484 24.3828 20.2528C24.9736 19.57 25.0354 18.5135 25.0544 18.1666L25.056 18.1444L25.0576 18.1302C25.1368 17.495 26.8871 17.2843 28.0673 17.3793C28.0926 17.3809 28.118 17.3809 28.1433 17.3809L28.1449 17.3825C28.6502 17.4126 29.1365 17.186 29.4406 16.7805C30.0157 15.9885 29.6703 14.7704 29.5689 14.4614C29.3503 13.7106 29.542 12.8996 30.0743 12.3262C36.1903 14.2191 40.9486 19.0504 42.7499 25.1932L42.7499 25.1934ZM13.3783 15.098C13.467 15.4798 13.5319 16.0501 13.5604 16.3114C13.5842 16.5284 13.6064 16.7169 13.6285 16.8437C13.7569 17.3537 13.7584 17.8875 13.6317 18.3976C13.4495 18.9172 13.0329 19.2974 12.2393 19.6664C12.1079 19.7282 11.978 19.7868 11.8481 19.8454C10.9737 20.2414 10.0708 20.6501 9.32624 21.5213C8.7354 22.212 7.81346 22.9201 7.2828 22.8963C7.21944 22.8947 7.15924 22.8773 7.10697 22.8456C8.47559 19.7535 10.6394 17.0812 13.3783 15.0982L13.3783 15.098ZM5.70345 27.6597C6.52397 27.712 8.26011 27.9528 8.32666 29.041H8.32824C8.25062 29.9677 8.26171 30.8991 8.36309 31.8226C8.51675 33.15 9.47668 33.9674 10.3241 34.6866C11.0955 35.3408 11.7609 35.9063 11.8226 36.7427V36.7411C11.8147 37.2226 11.7086 37.6963 11.509 38.1351C11.3791 38.4661 11.273 38.8051 11.1906 39.1504L11.1763 39.2201C11.01 39.8126 10.9673 40.4319 11.0496 41.0402C11.1795 41.7562 11.0987 42.3724 10.8389 42.6464V42.648C10.6235 42.827 10.3384 42.8999 10.0627 42.8444C6.47168 38.6579 4.87982 33.1153 5.70343 27.6598L5.70345 27.6597ZM17.3714 48.1161C18.9222 47.3652 22.5717 46.1804 25.8459 49.4546C25.4008 49.4863 24.9525 49.5084 24.4995 49.5084C22.0553 49.51 19.6349 49.0364 17.3713 48.1161H17.3714ZM27.4047 49.2867C22.5369 43.4841 16.4115 47.1656 15.9395 47.465V47.4634C14.1511 46.5589 12.5164 45.3772 11.094 43.9627C11.3459 43.8645 11.5724 43.7124 11.7593 43.5175C12.5371 42.6954 12.3929 41.3521 12.2947 40.8135H12.2963C12.2487 40.3668 12.2899 39.917 12.4151 39.4861L12.4309 39.4164V39.4148C12.5006 39.1281 12.5893 38.8446 12.6986 38.5705C12.9663 37.9639 13.0994 37.3081 13.0867 36.6459C12.9853 35.282 12.008 34.452 11.1446 33.7202C10.3796 33.0707 9.71901 32.5084 9.62238 31.6768C9.52892 30.8214 9.51941 29.9596 9.59386 29.1042C9.59545 29.0805 9.59703 29.0567 9.59545 29.0314C9.54793 27.5471 8.19041 26.5824 5.93947 26.405V26.4066C6.11688 25.5971 6.34657 24.8019 6.62852 24.0226C6.82019 24.1081 7.02612 24.1556 7.23522 24.162C7.25739 24.1636 7.27957 24.1636 7.30175 24.1636C8.66246 24.1636 10.0247 22.6524 10.2877 22.3451C10.85 21.6877 11.5534 21.3693 12.3691 20.9986C12.5022 20.9384 12.6384 20.8767 12.7731 20.8133C13.4669 20.4901 14.4332 19.9325 14.826 18.8158L14.8276 18.8174C15.0319 18.1046 15.0493 17.3505 14.8783 16.6298C14.8593 16.5205 14.8418 16.3574 14.8212 16.1704H14.8197C14.7785 15.5558 14.6613 14.9491 14.4696 14.3631C16.6461 13.0023 19.0775 12.0995 21.6136 11.7098C21.6437 11.9046 21.6548 12.1026 21.6484 12.3006V12.4131C21.6516 13.0087 21.6342 13.4174 21.3554 13.6407H21.3538C21.0972 13.8165 20.8152 13.9512 20.519 14.0414C20.3447 14.1064 20.1721 14.1698 20.0058 14.2442C19.1789 14.5658 18.417 15.0346 17.7548 15.6255C17.2353 16.1403 17.0864 16.6503 17.3129 17.1414C17.4523 17.444 17.8008 17.5866 18.1113 17.4693C18.4233 17.3521 18.5912 17.0147 18.4962 16.6963C18.5421 16.6345 18.5928 16.5775 18.6483 16.5237C19.2027 16.0453 19.8363 15.6651 20.5206 15.4022C20.6616 15.3388 20.8089 15.2849 20.9562 15.2311H20.9578C21.3839 15.0964 21.7863 14.8937 22.1474 14.6291C22.9252 14.005 22.9204 13.0799 22.9157 12.4035V12.3101C22.922 12.0614 22.9078 11.8127 22.8729 11.5656C23.4099 11.5196 23.9517 11.4911 24.4997 11.4911C25.9301 11.4927 27.3574 11.6543 28.7512 11.9759C28.23 12.8154 28.0811 13.8339 28.3425 14.786C28.3472 14.8034 28.352 14.8224 28.3583 14.8398C28.4977 15.2517 28.5532 15.8441 28.4138 16.0374C28.3758 16.0896 28.2871 16.115 28.1477 16.115C27.6233 16.0738 24.0625 15.8742 23.8009 17.9731H23.8041H23.8025C23.7962 18.0127 23.7914 18.0523 23.7898 18.0934C23.7423 18.8982 23.5649 19.2609 23.4255 19.424L23.4239 19.4224C23.2798 19.5603 23.1214 19.6806 22.9487 19.7804C22.4386 20.1131 21.6656 20.6152 21.7686 21.6417C21.8256 22.2103 22.182 22.5985 22.8299 22.7933C23.6916 23.0531 24.6579 22.9802 25.5085 22.9168C25.8491 22.8915 26.1706 22.8677 26.47 22.8646C28.1254 22.8455 29.1962 23.1085 29.7237 23.6693H29.7221C30.0452 24.0447 30.1894 24.5405 30.1165 25.03C30.1086 25.0886 29.9993 25.6066 28.7416 25.5416L28.6418 25.5369C26.6617 25.4386 26.0851 25.3373 25.9172 25.2866C24.3062 24.7955 22.3008 24.1841 20.2318 24.7147H20.2334C19.1135 25.0252 18.1124 25.6604 17.3552 26.5411C16.5996 27.4235 16.1228 28.5085 15.985 29.6617C15.7585 31.9839 16.5029 33.511 18.2613 34.33L18.4529 34.4203C19.3321 34.8337 20.1637 35.225 21.2615 35.1379C21.2852 35.1363 21.309 35.1331 21.3327 35.1284C21.7557 35.046 22.9865 34.9541 23.5979 35.5117C23.9337 35.8174 24.0652 36.3021 23.9971 36.9912C23.9749 37.4965 24.1048 37.9971 24.3725 38.4279C24.4533 38.5753 24.5214 38.7273 24.5785 38.8857C24.7083 39.3816 24.7701 39.8932 24.7622 40.4064C24.7638 40.9038 24.8113 41.3996 24.9016 41.8875C25.0885 42.9615 25.5716 43.9594 26.2987 44.7721C26.6662 45.1681 27.1826 45.3914 27.7212 45.3882C28.3849 45.3566 29.0201 45.1174 29.5397 44.7039C30.3777 44.1289 31.138 43.4478 31.8001 42.6763C32.2405 42.1885 32.5668 41.6087 32.7585 40.9814C32.8805 40.4381 32.9565 39.8853 32.9866 39.3308C33.0072 38.7241 33.1086 38.1238 33.286 37.544C33.5632 36.8977 33.9402 36.299 34.4027 35.7715C34.6229 35.4895 34.8495 35.1996 35.057 34.8939C35.2249 34.6484 35.3769 34.3886 35.5258 34.1367C35.6003 34.0116 35.6747 33.8849 35.7492 33.7629C35.9503 33.4366 36.2244 32.9883 36.0596 32.4925C35.9424 32.1757 35.6874 31.9286 35.3658 31.8256C35.2122 31.7654 35.0554 31.7084 34.9002 31.6529C34.3093 31.4391 33.7993 31.2553 33.446 30.8593C33.3557 30.758 33.267 30.6629 33.1799 30.5695C32.6714 30.0262 32.5494 29.8503 32.6255 29.4955L32.6239 29.4939C32.6524 29.2737 32.7855 29.0805 32.9787 28.9727C33.0231 28.9585 33.0943 28.9664 33.324 29.1216C33.8135 29.4543 34.8495 29.8044 35.6209 29.5414L35.6225 29.543C36.0264 29.4353 36.3654 29.1565 36.5492 28.7795C36.7852 28.2314 36.5333 27.6802 36.3306 27.2382C36.2466 27.0719 36.1785 26.8992 36.1262 26.7203C36.0787 26.5096 36.1326 26.2894 36.272 26.1263C36.405 25.9631 36.6078 25.876 36.8185 25.8902C37.3792 25.9203 38.0921 26.1563 38.4231 26.6142C38.8318 27.1765 39.5304 26.9452 40.2686 26.6997C40.9656 26.4684 41.9207 26.1516 42.5179 26.4637C42.8823 26.7013 43.1357 27.0767 43.2165 27.5044C43.2355 27.563 43.2624 27.6184 43.2957 27.6691C44.045 32.6416 42.792 37.7073 39.814 41.7592C36.836 45.8112 32.3735 48.5168 27.4043 49.2864L27.4047 49.2867Z" fill="#333333"/>
<circle cx="24.5" cy="30.5" r="24" stroke="#333333" stroke-dasharray="5 5"/>
<path d="M49.516 11.812C49.516 10.996 49.7 10.264 50.068 9.616C50.436 8.96 50.936 8.448 51.568 8.08C52.208 7.712 52.916 7.528 53.692 7.528C54.604 7.528 55.4 7.748 56.08 8.188C56.76 8.628 57.256 9.252 57.568 10.06H56.26C56.028 9.556 55.692 9.168 55.252 8.896C54.82 8.624 54.3 8.488 53.692 8.488C53.108 8.488 52.584 8.624 52.12 8.896C51.656 9.168 51.292 9.556 51.028 10.06C50.764 10.556 50.632 11.14 50.632 11.812C50.632 12.476 50.764 13.06 51.028 13.564C51.292 14.06 51.656 14.444 52.12 14.716C52.584 14.988 53.108 15.124 53.692 15.124C54.3 15.124 54.82 14.992 55.252 14.728C55.692 14.456 56.028 14.068 56.26 13.564H57.568C57.256 14.364 56.76 14.984 56.08 15.424C55.4 15.856 54.604 16.072 53.692 16.072C52.916 16.072 52.208 15.892 51.568 15.532C50.936 15.164 50.436 14.656 50.068 14.008C49.7 13.36 49.516 12.628 49.516 11.812ZM62.9855 16.084C62.2095 16.084 61.5015 15.904 60.8615 15.544C60.2215 15.176 59.7135 14.668 59.3375 14.02C58.9695 13.364 58.7855 12.628 58.7855 11.812C58.7855 10.996 58.9695 10.264 59.3375 9.616C59.7135 8.96 60.2215 8.452 60.8615 8.092C61.5015 7.724 62.2095 7.54 62.9855 7.54C63.7695 7.54 64.4815 7.724 65.1215 8.092C65.7615 8.452 66.2655 8.956 66.6335 9.604C67.0015 10.252 67.1855 10.988 67.1855 11.812C67.1855 12.636 67.0015 13.372 66.6335 14.02C66.2655 14.668 65.7615 15.176 65.1215 15.544C64.4815 15.904 63.7695 16.084 62.9855 16.084ZM62.9855 15.136C63.5695 15.136 64.0935 15 64.5575 14.728C65.0295 14.456 65.3975 14.068 65.6615 13.564C65.9335 13.06 66.0695 12.476 66.0695 11.812C66.0695 11.14 65.9335 10.556 65.6615 10.06C65.3975 9.556 65.0335 9.168 64.5695 8.896C64.1055 8.624 63.5775 8.488 62.9855 8.488C62.3935 8.488 61.8655 8.624 61.4015 8.896C60.9375 9.168 60.5695 9.556 60.2975 10.06C60.0335 10.556 59.9015 11.14 59.9015 11.812C59.9015 12.476 60.0335 13.06 60.2975 13.564C60.5695 14.068 60.9375 14.456 61.4015 14.728C61.8735 15 62.4015 15.136 62.9855 15.136ZM68.0601 15.489C68.6528 15.013 69.1171 14.6233 69.4531 14.32C69.7891 14.012 70.0715 13.6923 70.3001 13.361C70.5335 13.025 70.6501 12.696 70.6501 12.374C70.6501 12.0707 70.5755 11.8327 70.4261 11.66C70.2815 11.4827 70.0458 11.394 69.7191 11.394C69.4018 11.394 69.1545 11.4943 68.9771 11.695C68.8045 11.891 68.7111 12.1547 68.6971 12.486H68.0811C68.0998 11.9633 68.2585 11.5597 68.5571 11.275C68.8558 10.9903 69.2408 10.848 69.7121 10.848C70.1928 10.848 70.5731 10.981 70.8531 11.247C71.1378 11.513 71.2801 11.8793 71.2801 12.346C71.2801 12.7333 71.1635 13.1113 70.9301 13.48C70.7015 13.844 70.4401 14.166 70.1461 14.446C69.8521 14.7213 69.4765 15.0433 69.0191 15.412H71.4271V15.944H68.0601V15.489Z" fill="#333333"/>
</svg>
