<svg width="26" height="26" viewBox="0 0 26 26" fill="none" xmlns="http://www.w3.org/2000/svg">
<path d="M25.777 0.223142C25.5615 0.00762628 25.2383 -0.0586434 24.9555 0.0544974L0.478844 9.84504C0.198785 9.95706 0.011249 10.2238 0.000483355 10.5253C-0.0102315 10.8267 0.157956 11.106 0.429332 11.2377L10.0812 15.9187L14.7624 25.5706C14.89 25.8339 15.1566 26 15.4476 26C15.4566 26 15.4657 25.9998 15.4748 25.9995C15.7762 25.9888 16.043 25.8012 16.1549 25.5212L25.9456 1.04468C26.0587 0.761729 25.9925 0.438607 25.777 0.223142ZM2.64538 10.6192L22.0756 2.84722L10.496 14.4267L2.64538 10.6192ZM15.3808 23.3546L11.5732 15.5039L23.1529 3.92439L15.3808 23.3546Z" fill="#C10230"/>
</svg>
