<svg width="20" height="21" viewBox="0 0 20 21" fill="none" xmlns="http://www.w3.org/2000/svg">
<path d="M15.286 8.25984C17.3601 8.25984 19.0476 6.5749 19.0476 4.50376C19.0476 2.43351 17.3602 0.748474 15.286 0.748474C13.2127 0.748474 11.5252 2.43341 11.5252 4.50376C11.5252 4.96166 11.6119 5.39772 11.7619 5.80412L7.96204 8.04131C7.12301 7.00461 5.84493 6.37978 4.4826 6.37978C2.01091 6.37978 0 8.38773 0 10.8558C0 13.323 2.01091 15.3318 4.4826 15.3318C5.87707 15.3318 7.17547 14.682 8.00743 13.6133L11.7417 15.7211C11.6042 16.1111 11.5253 16.5277 11.5253 16.9637C11.5253 19.034 13.2127 20.719 15.2861 20.719C17.3602 20.719 19.0477 19.0341 19.0477 16.9637C19.0477 14.8927 17.3603 13.2076 15.2861 13.2076C14.126 13.2076 13.0878 13.7349 12.3972 14.5626L8.6646 12.4548C8.86303 11.9478 8.97163 11.4064 8.97163 10.8557C8.97163 10.2823 8.85523 9.71602 8.64041 9.18791L12.4394 6.95151C13.1292 7.7503 14.1487 8.25968 15.2861 8.25968L15.286 8.25984ZM15.286 14.5379C16.625 14.5379 17.7141 15.6253 17.7141 16.9624C17.7141 18.2986 16.6251 19.3861 15.286 19.3861C13.9478 19.3861 12.8587 18.2987 12.8587 16.9624C12.8579 15.6261 13.9477 14.5379 15.286 14.5379ZM4.48248 13.9996C2.74583 13.9996 1.33342 12.5893 1.33342 10.8552C1.33342 9.12193 2.74585 7.71082 4.48248 7.71082C5.5996 7.71082 6.63858 8.30523 7.19875 9.26705C7.48624 9.74913 7.63857 10.2991 7.63857 10.8552C7.63857 11.3982 7.49483 11.9302 7.21671 12.406C6.66674 13.3881 5.61912 13.9997 4.48244 13.9997L4.48248 13.9996ZM15.286 2.08019C16.625 2.08019 17.7141 3.16759 17.7141 4.5039C17.7141 5.84092 16.6251 6.92841 15.286 6.92841C13.9478 6.92841 12.8587 5.841 12.8587 4.5039C12.8579 3.16765 13.9477 2.08019 15.286 2.08019Z" fill="#C10230"/>
</svg>
