<svg width="58" height="64" viewBox="0 0 58 64" fill="none" xmlns="http://www.w3.org/2000/svg">
<path d="M29.6647 48.5595C23.6596 48.7052 18.0161 47.0301 12.8792 43.7526C8.53811 40.985 4.84819 37.4162 1.66472 33.3376C1.08591 32.6093 1.01356 32.0266 1.59237 31.2254C7.01873 24.3792 13.3857 18.9896 21.9955 16.8046C30.8223 14.6197 38.9257 16.5133 46.3055 21.6116C50.1402 24.2335 53.396 27.511 56.29 31.1526C56.7242 31.7353 57.0859 32.1723 56.5071 32.9734C51.0084 40.0382 44.4968 45.5734 35.5252 47.6856C34.5846 47.9041 33.6441 48.1226 32.6311 48.1954C31.6906 48.4139 30.75 48.4867 29.6647 48.5595ZM29.303 47.2486C29.9541 47.1757 31.0394 47.1757 32.1247 47.0301C41.7474 45.7919 48.8378 40.4023 54.7707 33.0463C55.2771 32.3908 55.1324 31.9538 54.6983 31.3711C52.2384 28.2393 49.4167 25.3989 46.1609 23.0682C39.4322 18.2613 31.98 16.222 23.8043 17.7515C14.9774 19.4266 8.46576 24.8162 3.11175 31.7353C2.8947 31.9538 2.96705 32.6821 3.1841 32.9734C4.19702 34.2844 5.2823 35.6682 6.51227 36.9064C12.6621 43.0971 19.8973 47.1029 29.303 47.2486Z" fill="#333333" stroke="#333333" stroke-width="0.5376" stroke-miterlimit="10"/>
<path d="M28.3624 1C28.7965 1 29.1583 1 29.5924 1C29.5924 3.4763 29.5924 5.87977 29.5924 8.4289C29.2306 8.4289 28.7965 8.50173 28.3624 8.50173C28.3624 5.9526 28.3624 3.54913 28.3624 1Z" fill="#333333" stroke="#333333" stroke-width="0.5376" stroke-miterlimit="10"/>
<path d="M28.3624 56.0613C28.7965 56.0613 29.1583 56.0613 29.5924 56.0613C29.5924 58.5376 29.5924 60.941 29.5924 63.4902C29.2306 63.4902 28.8689 63.563 28.3624 63.563C28.3624 61.0867 28.3624 58.6832 28.3624 56.0613Z" fill="#333333" stroke="#333333" stroke-width="0.5376" stroke-miterlimit="10"/>
<path d="M49.8507 20.8832C49.5613 20.519 49.4166 20.2277 49.1272 19.7907C51.2977 18.5526 53.3959 17.3144 55.5665 16.0034C55.7835 16.4404 56.0006 16.7317 56.29 17.2416C54.1194 18.4797 52.0213 19.645 49.8507 20.8832Z" fill="#333333" stroke="#333333" stroke-width="0.5376" stroke-miterlimit="10"/>
<path d="M45.1479 59.0473C44.6415 59.2658 44.2797 59.4843 43.8456 59.7028C42.6156 57.5179 41.458 55.4786 40.228 53.2936C40.5898 53.0023 40.8792 52.8566 41.3133 52.4924C42.6156 54.6774 43.8456 56.8624 45.1479 59.0473Z" fill="#333333" stroke="#333333" stroke-width="0.5376" stroke-miterlimit="10"/>
<path d="M8.10407 43.6069C8.39348 44.0439 8.53818 44.3353 8.82759 44.7723C6.65704 46.0104 4.55885 47.2485 2.38831 48.4867C2.17125 48.0497 1.9542 47.6855 1.66479 47.2485C3.83534 46.0104 5.93353 44.8451 8.10407 43.6069Z" fill="#333333" stroke="#333333" stroke-width="0.5376" stroke-miterlimit="10"/>
<path d="M49.1272 44.7723C49.3443 44.3353 49.489 44.0439 49.7784 43.6069C51.9489 44.8451 54.0471 46.0104 56.1453 47.2485C55.9282 47.6855 55.7835 48.0497 55.5665 48.5595C53.4683 47.2485 51.3701 46.0832 49.1272 44.7723Z" fill="#333333" stroke="#333333" stroke-width="0.5376" stroke-miterlimit="10"/>
<path d="M17.6543 11.1965C17.2926 11.4879 17.0032 11.6335 16.5691 11.9977C15.3391 9.81271 14.1091 7.70057 12.8792 5.5156C13.3133 5.2971 13.6027 5.0786 14.0368 4.86011C15.2667 6.97225 16.4967 9.08438 17.6543 11.1965Z" fill="#333333" stroke="#333333" stroke-width="0.5376" stroke-miterlimit="10"/>
<path d="M8.8275 19.7179C8.53809 20.1549 8.39339 20.519 8.10398 20.8832C5.93344 19.645 3.9076 18.4069 1.73706 17.1687C1.95411 16.8046 2.09882 16.4404 2.31587 16.0034C4.55877 17.2416 6.58461 18.4797 8.8275 19.7179Z" fill="#333333" stroke="#333333" stroke-width="0.5376" stroke-miterlimit="10"/>
<path d="M43.9179 4.86011C44.3521 5.0786 44.6415 5.2971 45.0756 5.5156C43.8456 7.70057 42.6156 9.73988 41.3856 11.9977C41.0239 11.7792 40.6621 11.6335 40.228 11.415C41.458 9.15722 42.688 7.04508 43.9179 4.86011Z" fill="#333333" stroke="#333333" stroke-width="0.5376" stroke-miterlimit="10"/>
<path d="M13.9644 59.63C13.5303 59.4115 13.2409 59.2658 12.8792 58.9745C14.1091 56.7895 15.3391 54.6774 16.5691 52.4924C17.0032 52.7838 17.3649 52.9294 17.7267 53.1479C16.4244 55.4057 15.1944 57.5179 13.9644 59.63Z" fill="#333333" stroke="#333333" stroke-width="0.5376" stroke-miterlimit="10"/>
<path d="M39.8663 32.3907C39.8663 38.2901 34.874 43.1699 28.9412 43.1699C23.0084 43.1699 18.0885 38.1445 18.1608 32.0994C18.2332 26.2 23.1531 21.3202 29.0859 21.3202C35.0187 21.3202 39.8663 26.3456 39.8663 32.3907ZM29.0135 41.8589C34.1505 41.8589 38.4192 37.5618 38.4916 32.3179C38.5639 27.0739 34.2952 22.704 29.0135 22.704C23.6595 22.704 19.4631 26.9283 19.4631 32.3179C19.4631 37.489 23.7319 41.7861 29.0135 41.8589Z" fill="#333333" stroke="#333333" stroke-width="0.5376" stroke-miterlimit="10"/>
<path d="M29.0136 41.859C23.7319 41.7862 19.3908 37.5619 19.4632 32.318C19.4632 26.9284 23.6596 22.7041 29.0136 22.7041C34.2952 22.7041 38.5639 27.074 38.4916 32.318C38.4192 37.5619 34.1505 41.859 29.0136 41.859ZM29.0136 38.0717C32.5588 38.0717 35.2358 34.7214 34.5846 31.1527C34.4399 30.57 34.4399 29.9145 34.5123 29.259C34.7293 27.5839 33.427 26.2001 31.7629 26.3457C30.8223 26.4186 29.8818 26.5642 28.8689 26.5642C25.613 26.6371 23.2254 29.1133 23.2254 32.318C23.2978 35.5954 25.8301 38.0717 29.0136 38.0717Z" fill="white" stroke="#333333" stroke-width="0.5376" stroke-miterlimit="10"/>
<path d="M29.0136 38.0716C25.8301 38.0716 23.2978 35.5225 23.2255 32.3179C23.2255 29.0404 25.6131 26.5641 28.8689 26.5641C29.8094 26.5641 30.75 26.4913 31.7629 26.3456C33.427 26.2 34.7293 27.5838 34.5123 29.2589C34.4399 29.8416 34.4399 30.5699 34.5846 31.1526C35.2358 34.7214 32.5588 38.0716 29.0136 38.0716ZM29.0859 36.6878C31.4012 36.6878 33.427 34.5757 33.427 32.245C33.427 31.5167 33.2823 31.1526 32.4141 31.2254C30.6777 31.2982 29.8818 30.6427 29.8094 28.9676C29.7371 27.8751 29.1583 27.8023 28.3624 27.9479C26.1195 28.3121 24.4554 30.4242 24.6725 32.682C24.7448 34.867 26.843 36.6878 29.0859 36.6878ZM33.6441 28.8948C32.9929 28.3849 32.5588 27.8023 32.197 27.8023C31.7629 27.8023 31.4012 28.4578 31.0394 28.7491C31.4012 29.1133 31.7629 29.7687 32.197 29.9144C32.4141 29.9872 32.9206 29.4046 33.6441 28.8948Z" fill="#333333" stroke="#333333" stroke-width="0.5376" stroke-miterlimit="10"/>
</svg>
